<?xml version="1.0" encoding="UTF-8"?>
<!DOCTYPE svg PUBLIC "-//W3C//DTD SVG 1.1//EN" "http://www.w3.org/Graphics/SVG/1.1/DTD/svg11.dtd">
<svg xmlns="http://www.w3.org/2000/svg" version="1.1" width="2303px" height="2426px" style="shape-rendering:geometricPrecision; text-rendering:geometricPrecision; image-rendering:optimizeQuality; fill-rule:evenodd; clip-rule:evenodd" xmlns:xlink="http://www.w3.org/1999/xlink">
<g><path style="opacity:1" fill="#131212" d="M 664.5,191.5 C 986.834,191.333 1309.17,191.5 1631.5,192C 1808.58,204.444 1952.08,279.611 2062,417.5C 2132.12,509.484 2171.79,613.484 2181,729.5C 2182.15,890.323 2182.65,1051.16 2182.5,1212C 2182.33,1367.17 2182.17,1522.33 2182,1677.5C 2170.1,1861.85 2091.26,2009.68 1945.5,2121C 1854.94,2186.64 1753.61,2223.64 1641.5,2232C 1318.51,2233.65 995.509,2233.99 672.5,2233C 496.055,2223.2 351.888,2150.7 240,2015.5C 164.225,1919.56 122.225,1810.23 114,1687.5C 112.355,1380.17 112.022,1072.84 113,765.5C 118.591,584.835 190.091,436.668 327.5,321C 425.911,242.351 538.244,199.184 664.5,191.5 Z"/></g>
<g><path style="opacity:1" fill="#260d08" d="M 907.5,472.5 C 894.572,470.807 881.905,471.474 869.5,474.5C 862.262,475.691 855.262,477.691 848.5,480.5C 849.301,478.958 849.634,477.292 849.5,475.5C 851.734,475.38 853.901,475.713 856,476.5C 857.989,474.687 860.156,473.02 862.5,471.5C 864.608,472.102 866.775,472.435 869,472.5C 881.878,469.85 894.712,469.85 907.5,472.5 Z"/></g>
<g><path style="opacity:1" fill="#2c0f0b" d="M 1407.5,478.5 C 1394.41,475.055 1381.07,473.721 1367.5,474.5C 1370.94,473.177 1374.77,472.51 1379,472.5C 1382.83,472.667 1386.67,472.833 1390.5,473C 1395.02,473.901 1399.52,475.067 1404,476.5C 1406.41,474.847 1407.58,475.513 1407.5,478.5 Z"/></g>
<g><path style="opacity:1" fill="#d25c36" d="M 907.5,472.5 C 909.626,473.048 911.626,473.715 913.5,474.5C 904.457,473.272 895.457,473.439 886.5,475C 887.687,476.019 888.687,477.186 889.5,478.5C 886.707,479.955 884.374,479.455 882.5,477C 878.111,476.355 873.777,475.522 869.5,474.5C 881.905,471.474 894.572,470.807 907.5,472.5 Z"/></g>
<g><path style="opacity:1" fill="#c3653d" d="M 1367.5,474.5 C 1381.07,473.721 1394.41,475.055 1407.5,478.5C 1414.64,480.209 1421.31,482.875 1427.5,486.5C 1423.01,486.76 1419.17,485.427 1416,482.5C 1408.77,480.901 1401.6,479.067 1394.5,477C 1382.84,476.5 1371.17,476.333 1359.5,476.5C 1362.05,475.745 1364.72,475.078 1367.5,474.5 Z"/></g>
<g><path style="opacity:1" fill="#dc5a27" d="M 913.5,474.5 C 926.798,476.326 939.131,480.66 950.5,487.5C 951.301,489.042 951.634,490.708 951.5,492.5C 954.062,493.18 956.729,493.347 959.5,493C 960.047,493.925 960.713,494.758 961.5,495.5C 965.965,497.233 970.298,499.233 974.5,501.5C 986.061,509.061 996.728,517.727 1006.5,527.5C 1008.5,531.5 1011.5,534.5 1015.5,536.5C 1037.3,558.967 1055.64,583.967 1070.5,611.5C 1071.8,615.37 1072.47,619.37 1072.5,623.5C 1073.5,623.5 1074.5,623.5 1075.5,623.5C 1075.5,625.5 1075.5,627.5 1075.5,629.5C 1076.83,629.5 1078.17,629.5 1079.5,629.5C 1079.62,632.374 1080.62,634.874 1082.5,637C 1081.39,638.813 1082.06,639.646 1084.5,639.5C 1085.5,640.833 1086.5,642.167 1087.5,643.5C 1088.83,647.822 1090.16,652.155 1091.5,656.5C 1092.41,659.535 1092.41,662.535 1091.5,665.5C 1092.21,667.452 1093.37,669.119 1095,670.5C 1095.58,672.649 1096.08,674.815 1096.5,677C 1095.67,679.478 1095.5,681.978 1096,684.5C 1097.04,683.377 1097.71,682.044 1098,680.5C 1098.24,682.852 1099.07,684.852 1100.5,686.5C 1102.2,691.632 1103.53,696.966 1104.5,702.5C 1106.18,712.628 1107.85,722.628 1109.5,732.5C 1109.5,735.5 1109.5,738.5 1109.5,741.5C 1109.5,744.833 1109.5,748.167 1109.5,751.5C 1109.71,786.175 1109.38,820.842 1108.5,855.5C 1108.01,863.767 1106.68,871.767 1104.5,879.5C 1102.78,881.658 1101.95,884.325 1102,887.5C 1100.28,888.552 1099.28,887.886 1099,885.5C 1097.48,887.614 1097.15,889.947 1098,892.5C 1101,895.04 1101,897.373 1098,899.5C 1097.24,901.769 1097.41,903.936 1098.5,906C 1098,906.5 1097.5,907 1097,907.5C 1093.49,923.524 1089.99,939.524 1086.5,955.5C 1085.5,955.5 1084.5,955.5 1083.5,955.5C 1083.44,957.884 1083.78,960.218 1084.5,962.5C 1082.71,967.721 1081.37,973.054 1080.5,978.5C 1077.63,990.239 1073.63,1001.57 1068.5,1012.5C 1066.81,1010.8 1065.47,1008.8 1064.5,1006.5C 1063.3,1002.44 1061.3,998.775 1058.5,995.5C 1057.06,994.048 1055.39,993.048 1053.5,992.5C 1045.06,981.388 1035.06,972.055 1023.5,964.5C 1022.32,963.312 1022.32,962.145 1023.5,961C 1022.55,960.383 1021.72,960.549 1021,961.5C 1019.93,959.901 1018.43,958.901 1016.5,958.5C 1015.36,957.224 1015.36,955.891 1016.5,954.5C 1013.2,953.444 1009.86,953.444 1006.5,954.5C 996.356,952.438 986.023,951.938 975.5,953C 974.584,953.278 973.918,953.778 973.5,954.5C 955.008,959.173 939.508,968.84 927,983.5C 920.618,990.88 914.618,998.547 909,1006.5C 898.475,1023.56 887.975,1040.56 877.5,1057.5C 846.623,1034.29 820.623,1006.63 799.5,974.5C 799.116,971.231 797.782,968.397 795.5,966C 796,965.5 796.5,965 797,964.5C 797.249,965.624 797.749,966.624 798.5,967.5C 799.452,965.955 799.785,964.288 799.5,962.5C 792.18,962.554 788.347,958.888 788,951.5C 787.014,952.171 785.847,952.171 784.5,951.5C 781.9,947.299 779.566,942.966 777.5,938.5C 776.58,934.064 774.913,929.898 772.5,926C 773.022,925.05 773.689,924.216 774.5,923.5C 773.691,921.929 773.357,920.262 773.5,918.5C 771.833,918.5 770.167,918.5 768.5,918.5C 767.986,916.302 766.986,914.302 765.5,912.5C 765.043,911.702 764.376,911.369 763.5,911.5C 761.94,909.046 760.94,906.38 760.5,903.5C 758.889,896.553 756.389,889.886 753,883.5C 752.503,880.854 752.336,878.187 752.5,875.5C 750.801,875.473 749.467,874.806 748.5,873.5C 741.963,856.031 736.963,838.031 733.5,819.5C 731.349,809.623 730.015,799.623 729.5,789.5C 728.167,766.833 728.167,744.167 729.5,721.5C 729.701,715.491 730.034,709.491 730.5,703.5C 732.066,695.243 733.733,686.909 735.5,678.5C 736.232,677.192 737.066,675.858 738,674.5C 739.159,668.198 739.992,661.864 740.5,655.5C 742.895,651.791 745.062,647.791 747,643.5C 749.114,650.958 750.114,658.625 750,666.5C 750.667,659.167 750.667,651.833 750,644.5C 749.529,642.754 748.862,641.087 748,639.5C 747.667,639.833 747.333,640.167 747,640.5C 746.422,636.044 746.922,631.711 748.5,627.5C 749.5,627.5 750.5,627.5 751.5,627.5C 751.496,623.973 751.163,620.473 750.5,617C 751.729,613.25 752.563,609.417 753,605.5C 753.667,604.833 754.333,604.167 755,603.5C 755.285,615.297 756.452,615.297 758.5,603.5C 756.613,600.08 756.113,596.413 757,592.5C 757.333,593.167 757.667,593.833 758,594.5C 759.203,590.89 760.203,587.224 761,583.5C 762.356,584.38 763.856,584.714 765.5,584.5C 765.337,582.143 765.503,579.81 766,577.5C 766.667,578.833 767.333,578.833 768,577.5C 768.495,575.527 768.662,573.527 768.5,571.5C 770.901,570.951 773.235,570.118 775.5,569C 777.155,567.556 777.822,565.722 777.5,563.5C 776.022,563.762 774.689,563.429 773.5,562.5C 773.072,560.614 772.739,558.781 772.5,557C 773.852,555.036 774.686,552.869 775,550.5C 776.356,549.62 777.856,549.286 779.5,549.5C 780.373,545.879 781.039,542.212 781.5,538.5C 782.433,535.63 784.1,533.296 786.5,531.5C 788.053,529.615 790.053,528.615 792.5,528.5C 796.816,522.555 801.149,516.555 805.5,510.5C 818.197,498.133 832.53,488.133 848.5,480.5C 855.262,477.691 862.262,475.691 869.5,474.5C 873.777,475.522 878.111,476.355 882.5,477C 884.374,479.455 886.707,479.955 889.5,478.5C 888.687,477.186 887.687,476.019 886.5,475C 895.457,473.439 904.457,473.272 913.5,474.5 Z"/></g>
<g><path style="opacity:1" fill="#dc5a27" d="M 1359.5,476.5 C 1371.17,476.333 1382.84,476.5 1394.5,477C 1401.6,479.067 1408.77,480.901 1416,482.5C 1419.17,485.427 1423.01,486.76 1427.5,486.5C 1460.73,503.735 1486.4,528.735 1504.5,561.5C 1508.52,569.539 1512.52,577.539 1516.5,585.5C 1528.42,616.255 1537.08,647.922 1542.5,680.5C 1542.33,685.511 1542.5,690.511 1543,695.5C 1544.49,700.825 1545.66,706.158 1546.5,711.5C 1551.52,762.863 1547.52,813.53 1534.5,863.5C 1531,868.823 1529.34,874.823 1529.5,881.5C 1528.85,881.804 1528.18,882.137 1527.5,882.5C 1526.5,886.692 1525.16,890.692 1523.5,894.5C 1519.74,895.701 1516.07,897.201 1512.5,899C 1510.94,899.759 1509.94,900.926 1509.5,902.5C 1462.54,932.324 1429.71,973.657 1411,1026.5C 1407.03,1038.25 1403.19,1049.92 1399.5,1061.5C 1389.55,1066.98 1379.21,1071.64 1368.5,1075.5C 1359.75,1077.1 1351.41,1079.44 1343.5,1082.5C 1342.08,1083.45 1340.41,1083.78 1338.5,1083.5C 1353.64,1053.41 1363.31,1021.74 1367.5,988.5C 1368.17,985.972 1368.83,983.306 1369.5,980.5C 1369.83,974.5 1370.17,968.5 1370.5,962.5C 1370.67,953.284 1370,944.284 1368.5,935.5C 1368.5,934.833 1368.5,934.167 1368.5,933.5C 1368.54,924.447 1367.88,915.447 1366.5,906.5C 1365.67,904.838 1364.51,903.505 1363,902.5C 1361,896.07 1359.67,889.737 1359,883.5C 1358.69,884.308 1358.19,884.975 1357.5,885.5C 1356.34,881.878 1356.17,878.211 1357,874.5C 1357.92,873.953 1358.76,873.287 1359.5,872.5C 1356.41,870.514 1353.08,870.181 1349.5,871.5C 1337.75,843.424 1319.41,820.757 1294.5,803.5C 1293.97,802.279 1293.31,801.113 1292.5,800C 1287.04,797.734 1281.37,795.9 1275.5,794.5C 1270.18,793.945 1264.85,793.612 1259.5,793.5C 1253.9,793.276 1248.57,793.943 1243.5,795.5C 1227.84,799.663 1213.84,806.996 1201.5,817.5C 1197.45,817.87 1194.45,819.87 1192.5,823.5C 1191.27,824.281 1189.94,824.781 1188.5,825C 1189.17,825.333 1189.83,825.667 1190.5,826C 1187.99,828.011 1185.66,830.178 1183.5,832.5C 1184.13,833.417 1184.46,834.417 1184.5,835.5C 1183.24,839.025 1181.24,842.025 1178.5,844.5C 1177.88,844.611 1177.38,844.944 1177,845.5C 1177.12,840.067 1176.29,835.067 1174.5,830.5C 1172.87,804.215 1172.2,777.882 1172.5,751.5C 1174.47,743.903 1175.13,735.903 1174.5,727.5C 1177.3,695.958 1184.64,665.625 1196.5,636.5C 1198.8,635.94 1201.13,635.44 1203.5,635C 1200.79,633.136 1199.96,630.636 1201,627.5C 1203.22,625.277 1204.56,622.611 1205,619.5C 1205.33,620.5 1205.67,621.5 1206,622.5C 1207.79,620.667 1207.95,618.667 1206.5,616.5C 1209.35,613.796 1210.85,610.463 1211,606.5C 1213,607.833 1215,607.833 1217,606.5C 1217.67,605.5 1217.67,604.5 1217,603.5C 1216.67,603.833 1216.33,604.167 1216,604.5C 1213.47,600.227 1214.64,597.894 1219.5,597.5C 1219.33,591.303 1220.33,590.637 1222.5,595.5C 1223.43,594.311 1223.76,592.978 1223.5,591.5C 1224.5,591.5 1225.5,591.5 1226.5,591.5C 1226.85,588.115 1227.51,584.782 1228.5,581.5C 1227.84,579.547 1227.51,577.547 1227.5,575.5C 1229.41,575.574 1230.58,576.574 1231,578.5C 1231.5,576.965 1231.33,575.465 1230.5,574C 1231.88,572.403 1232.55,570.57 1232.5,568.5C 1234.68,568.112 1236.52,567.112 1238,565.5C 1239.57,566.856 1241.4,567.523 1243.5,567.5C 1243.5,565.167 1243.5,562.833 1243.5,560.5C 1242.45,560.649 1241.45,560.483 1240.5,560C 1241.65,558.117 1243.32,557.284 1245.5,557.5C 1245.28,558.675 1245.61,559.675 1246.5,560.5C 1246.83,560 1247.17,559.5 1247.5,559C 1247.42,556.909 1247.09,554.742 1246.5,552.5C 1249.28,551.608 1251.78,551.608 1254,552.5C 1254.64,548.941 1255.81,545.607 1257.5,542.5C 1255.08,540.286 1255.74,539.286 1259.5,539.5C 1259.1,536.956 1259.77,534.789 1261.5,533C 1264.2,533.438 1266.87,533.272 1269.5,532.5C 1269.51,530.588 1269.18,528.588 1268.5,526.5C 1269.52,525.148 1270.52,523.815 1271.5,522.5C 1295.99,498.251 1325.33,482.918 1359.5,476.5 Z"/></g>
<g><path style="opacity:1" fill="#c46036" d="M 950.5,487.5 C 959.164,491.161 967.164,495.827 974.5,501.5C 970.298,499.233 965.965,497.233 961.5,495.5C 960.713,494.758 960.047,493.925 959.5,493C 956.729,493.347 954.062,493.18 951.5,492.5C 951.634,490.708 951.301,489.042 950.5,487.5 Z"/></g>
<g><path style="opacity:1" fill="#cb5b39" d="M 805.5,510.5 C 801.149,516.555 796.816,522.555 792.5,528.5C 790.053,528.615 788.053,529.615 786.5,531.5C 789.374,526.446 792.874,521.78 797,517.5C 799.436,514.553 802.269,512.22 805.5,510.5 Z"/></g>
<g><path style="opacity:1" fill="#bf6646" d="M 1006.5,527.5 C 1009.83,530.167 1012.83,533.167 1015.5,536.5C 1011.5,534.5 1008.5,531.5 1006.5,527.5 Z"/></g>
<g><path style="opacity:1" fill="#d45c2e" d="M 1271.5,522.5 C 1270.52,523.815 1269.52,525.148 1268.5,526.5C 1269.18,528.588 1269.51,530.588 1269.5,532.5C 1266.87,533.272 1264.2,533.438 1261.5,533C 1259.77,534.789 1259.1,536.956 1259.5,539.5C 1255.74,539.286 1255.08,540.286 1257.5,542.5C 1255.81,545.607 1254.64,548.941 1254,552.5C 1251.78,551.608 1249.28,551.608 1246.5,552.5C 1247.09,554.742 1247.42,556.909 1247.5,559C 1247.17,559.5 1246.83,560 1246.5,560.5C 1245.61,559.675 1245.28,558.675 1245.5,557.5C 1243.32,557.284 1241.65,558.117 1240.5,560C 1241.45,560.483 1242.45,560.649 1243.5,560.5C 1243.5,562.833 1243.5,565.167 1243.5,567.5C 1241.4,567.523 1239.57,566.856 1238,565.5C 1236.52,567.112 1234.68,568.112 1232.5,568.5C 1232.55,570.57 1231.88,572.403 1230.5,574C 1231.33,575.465 1231.5,576.965 1231,578.5C 1230.58,576.574 1229.41,575.574 1227.5,575.5C 1236.19,560.822 1246.35,547.156 1258,534.5C 1262.09,529.898 1266.59,525.898 1271.5,522.5 Z"/></g>
<g><path style="opacity:1" fill="#d55d2d" d="M 781.5,538.5 C 781.039,542.212 780.373,545.879 779.5,549.5C 777.856,549.286 776.356,549.62 775,550.5C 774.686,552.869 773.852,555.036 772.5,557C 772.739,558.781 773.072,560.614 773.5,562.5C 774.689,563.429 776.022,563.762 777.5,563.5C 777.822,565.722 777.155,567.556 775.5,569C 773.235,570.118 770.901,570.951 768.5,571.5C 768.662,573.527 768.495,575.527 768,577.5C 767.333,578.833 766.667,578.833 766,577.5C 765.503,579.81 765.337,582.143 765.5,584.5C 763.856,584.714 762.356,584.38 761,583.5C 760.203,587.224 759.203,590.89 758,594.5C 757.667,593.833 757.333,593.167 757,592.5C 756.113,596.413 756.613,600.08 758.5,603.5C 756.452,615.297 755.285,615.297 755,603.5C 754.333,604.167 753.667,604.833 753,605.5C 752.563,609.417 751.729,613.25 750.5,617C 751.163,620.473 751.496,623.973 751.5,627.5C 750.5,627.5 749.5,627.5 748.5,627.5C 746.922,631.711 746.422,636.044 747,640.5C 747.333,640.167 747.667,639.833 748,639.5C 748.862,641.087 749.529,642.754 750,644.5C 750.667,651.833 750.667,659.167 750,666.5C 750.114,658.625 749.114,650.958 747,643.5C 745.062,647.791 742.895,651.791 740.5,655.5C 746.147,618.393 757.314,583.06 774,549.5C 776.029,545.42 778.529,541.754 781.5,538.5 Z"/></g>
<g><path style="opacity:1" fill="#260e09" d="M 1516.5,585.5 C 1512.52,577.539 1508.52,569.539 1504.5,561.5C 1505.73,561.721 1506.73,562.388 1507.5,563.5C 1508.89,562.395 1510.06,561.061 1511,559.5C 1511.9,562.025 1511.4,564.192 1509.5,566C 1511.16,570.321 1513.32,574.821 1516,579.5C 1516.5,581.473 1516.66,583.473 1516.5,585.5 Z"/></g>
<g><path style="opacity:1" fill="#d15d2e" d="M 1227.5,575.5 C 1227.51,577.547 1227.84,579.547 1228.5,581.5C 1227.51,584.782 1226.85,588.115 1226.5,591.5C 1225.5,591.5 1224.5,591.5 1223.5,591.5C 1223.76,592.978 1223.43,594.311 1222.5,595.5C 1220.33,590.637 1219.33,591.303 1219.5,597.5C 1214.64,597.894 1213.47,600.227 1216,604.5C 1216.33,604.167 1216.67,603.833 1217,603.5C 1217.67,604.5 1217.67,605.5 1217,606.5C 1215,607.833 1213,607.833 1211,606.5C 1210.85,610.463 1209.35,613.796 1206.5,616.5C 1207.95,618.667 1207.79,620.667 1206,622.5C 1205.67,621.5 1205.33,620.5 1205,619.5C 1204.56,622.611 1203.22,625.277 1201,627.5C 1199.96,630.636 1200.79,633.136 1203.5,635C 1201.13,635.44 1198.8,635.94 1196.5,636.5C 1204.49,614.849 1214.82,594.516 1227.5,575.5 Z"/></g>
<g><path style="opacity:1" fill="#220f10" d="M 1071.5,612.5 C 1076.26,614.987 1079.93,618.654 1082.5,623.5C 1081.1,624.842 1081.43,625.676 1083.5,626C 1082.42,627.726 1082.26,629.559 1083,631.5C 1083.91,629.561 1085.41,628.561 1087.5,628.5C 1086.9,633.567 1086.9,638.567 1087.5,643.5C 1086.5,642.167 1085.5,640.833 1084.5,639.5C 1080.97,630.11 1076.64,621.11 1071.5,612.5 Z"/></g>
<g><path style="opacity:1" fill="#ca5f39" d="M 1070.5,611.5 C 1071.17,611.5 1071.5,611.833 1071.5,612.5C 1076.64,621.11 1080.97,630.11 1084.5,639.5C 1082.06,639.646 1081.39,638.813 1082.5,637C 1080.62,634.874 1079.62,632.374 1079.5,629.5C 1078.17,629.5 1076.83,629.5 1075.5,629.5C 1075.5,627.5 1075.5,625.5 1075.5,623.5C 1074.5,623.5 1073.5,623.5 1072.5,623.5C 1072.47,619.37 1071.8,615.37 1070.5,611.5 Z"/></g>
<g><path style="opacity:1" fill="#ca6138" d="M 1091.5,656.5 C 1095.41,666.132 1098.41,676.132 1100.5,686.5C 1099.07,684.852 1098.24,682.852 1098,680.5C 1097.71,682.044 1097.04,683.377 1096,684.5C 1095.5,681.978 1095.67,679.478 1096.5,677C 1096.08,674.815 1095.58,672.649 1095,670.5C 1093.37,669.119 1092.21,667.452 1091.5,665.5C 1092.41,662.535 1092.41,659.535 1091.5,656.5 Z"/></g>
<g><path style="opacity:1" fill="#bd6140" d="M 740.5,655.5 C 739.992,661.864 739.159,668.198 738,674.5C 737.066,675.858 736.232,677.192 735.5,678.5C 736.549,670.58 738.215,662.913 740.5,655.5 Z"/></g>
<g><path style="opacity:1" fill="#c26345" d="M 1542.5,680.5 C 1544.88,690.564 1546.22,700.897 1546.5,711.5C 1545.66,706.158 1544.49,700.825 1543,695.5C 1542.5,690.511 1542.33,685.511 1542.5,680.5 Z"/></g>
<g><path style="opacity:1" fill="#290b03" d="M 1104.5,702.5 C 1106.08,704.717 1107.08,707.384 1107.5,710.5C 1108.63,717.794 1109.29,725.127 1109.5,732.5C 1107.85,722.628 1106.18,712.628 1104.5,702.5 Z"/></g>
<g><path style="opacity:1" fill="#2e0b04" d="M 730.5,703.5 C 730.034,709.491 729.701,715.491 729.5,721.5C 728.833,725.833 728.167,730.167 727.5,734.5C 727.523,726.822 727.856,719.155 728.5,711.5C 728.522,708.41 729.188,705.743 730.5,703.5 Z"/></g>
<g><path style="opacity:1" fill="#bf6844" d="M 729.5,721.5 C 728.167,744.167 728.167,766.833 729.5,789.5C 728.833,785.167 728.167,780.833 727.5,776.5C 727.5,762.5 727.5,748.5 727.5,734.5C 728.167,730.167 728.833,725.833 729.5,721.5 Z"/></g>
<g><path style="opacity:1" fill="#c4663f" d="M 1174.5,727.5 C 1175.13,735.903 1174.47,743.903 1172.5,751.5C 1172.32,743.284 1172.99,735.284 1174.5,727.5 Z"/></g>
<g><path style="opacity:1" fill="#d05e2c" d="M 1109.5,751.5 C 1110.03,761.151 1110.86,770.818 1112,780.5C 1112.5,790.494 1112.67,800.494 1112.5,810.5C 1112.5,816.5 1112.5,822.5 1112.5,828.5C 1111.46,837.538 1110.13,846.538 1108.5,855.5C 1109.38,820.842 1109.71,786.175 1109.5,751.5 Z"/></g>
<g><path style="opacity:1" fill="#c06440" d="M 1109.5,741.5 C 1111.32,754.358 1112.66,767.358 1113.5,780.5C 1113.83,790.681 1113.49,800.681 1112.5,810.5C 1112.67,800.494 1112.5,790.494 1112,780.5C 1110.86,770.818 1110.03,761.151 1109.5,751.5C 1109.5,748.167 1109.5,744.833 1109.5,741.5 Z"/></g>
<g><path style="opacity:1" fill="#bf643f" d="M 1171.5,751.5 C 1171.83,751.5 1172.17,751.5 1172.5,751.5C 1172.2,777.882 1172.87,804.215 1174.5,830.5C 1173.6,829.791 1173.26,828.791 1173.5,827.5C 1171.81,802.201 1171.14,776.868 1171.5,751.5 Z"/></g>
<g><path style="opacity:1" fill="#320c09" d="M 1113.5,780.5 C 1114.22,795.192 1114.55,810.025 1114.5,825C 1114.61,826.699 1113.95,827.866 1112.5,828.5C 1112.5,822.5 1112.5,816.5 1112.5,810.5C 1113.49,800.681 1113.83,790.681 1113.5,780.5 Z"/></g>
<g><path style="opacity:1" fill="#fcfdea" d="M 1294.5,803.5 C 1319.41,820.757 1337.75,843.424 1349.5,871.5C 1358.69,891.384 1365.02,912.051 1368.5,933.5C 1368.5,934.167 1368.5,934.833 1368.5,935.5C 1369.78,953.191 1369.45,970.858 1367.5,988.5C 1363.31,1021.74 1353.64,1053.41 1338.5,1083.5C 1331.27,1099.63 1323.27,1115.3 1314.5,1130.5C 1303.88,1147.45 1289.55,1160.12 1271.5,1168.5C 1254.15,1175.09 1236.81,1175.09 1219.5,1168.5C 1205.44,1160.95 1193.27,1150.95 1183,1138.5C 1172.62,1125.07 1163.79,1110.74 1156.5,1095.5C 1155.07,1091.65 1153.4,1087.98 1151.5,1084.5C 1136.12,1045.55 1130.29,1005.22 1134,963.5C 1136.11,946.379 1140.11,929.712 1146,913.5C 1155.37,891.088 1165.54,869.088 1176.5,847.5C 1177.91,847.027 1178.57,846.027 1178.5,844.5C 1181.24,842.025 1183.24,839.025 1184.5,835.5C 1190.18,829.458 1195.84,823.458 1201.5,817.5C 1213.84,806.996 1227.84,799.663 1243.5,795.5C 1261.48,792.23 1278.48,794.897 1294.5,803.5 Z"/></g>
<g><path style="opacity:1" fill="#c6623b" d="M 1294.5,803.5 C 1278.48,794.897 1261.48,792.23 1243.5,795.5C 1248.57,793.943 1253.9,793.276 1259.5,793.5C 1264.85,793.612 1270.18,793.945 1275.5,794.5C 1281.37,795.9 1287.04,797.734 1292.5,800C 1293.31,801.113 1293.97,802.279 1294.5,803.5 Z"/></g>
<g><path style="opacity:1" fill="#c3653d" d="M 551.5,808.5 C 543.539,806.845 535.539,805.178 527.5,803.5C 516.52,802.501 505.52,802.168 494.5,802.5C 514.039,798.861 533.039,800.861 551.5,808.5 Z"/></g>
<g><path style="opacity:1" fill="#dc5a27" d="M 494.5,802.5 C 505.52,802.168 516.52,802.501 527.5,803.5C 535.539,805.178 543.539,806.845 551.5,808.5C 557.285,809.536 562.618,811.536 567.5,814.5C 569.279,815.67 570.279,817.336 570.5,819.5C 575.987,820.245 581.32,821.578 586.5,823.5C 635.689,851.85 676.856,889.183 710,935.5C 725.266,960.702 736.099,987.702 742.5,1016.5C 742.098,1022.22 742.765,1027.72 744.5,1033C 743.6,1035.41 743.767,1037.58 745,1039.5C 745.333,1038.83 745.667,1038.17 746,1037.5C 745.917,1041.31 746.75,1044.64 748.5,1047.5C 748.5,1047.83 748.5,1048.17 748.5,1048.5C 749.876,1062.73 750.543,1077.07 750.5,1091.5C 749.891,1106.18 749.224,1120.84 748.5,1135.5C 746.563,1142.79 745.23,1150.46 744.5,1158.5C 744.5,1159.83 744.5,1161.17 744.5,1162.5C 730.672,1216.14 704.006,1262.31 664.5,1301C 652.805,1310.84 640.471,1319.67 627.5,1327.5C 615.687,1333.55 603.687,1339.22 591.5,1344.5C 587.5,1345.5 583.5,1346.5 579.5,1347.5C 569.658,1349.42 559.824,1351.75 550,1354.5C 546.952,1353.98 544.119,1352.98 541.5,1351.5C 540.833,1351.67 540.167,1351.83 539.5,1352C 541.439,1352.91 542.439,1354.41 542.5,1356.5C 537.29,1356.61 532.29,1357.28 527.5,1358.5C 516.833,1359.83 506.167,1359.83 495.5,1358.5C 493.342,1356.78 490.675,1355.95 487.5,1356C 488.433,1354.39 487.767,1353.56 485.5,1353.5C 484.259,1354.04 483.092,1354.7 482,1355.5C 477.611,1353.89 473.111,1352.72 468.5,1352C 475.856,1351.83 483.189,1351.33 490.5,1350.5C 481.156,1349.22 471.823,1349.22 462.5,1350.5C 459.084,1348.73 455.418,1347.73 451.5,1347.5C 440.184,1343.48 430.184,1337.48 421.5,1329.5C 421.002,1325.43 418.669,1323.43 414.5,1323.5C 397.469,1307.26 384.969,1287.93 377,1265.5C 372.247,1253.15 368.747,1240.49 366.5,1227.5C 366.211,1223.89 366.544,1220.39 367.5,1217C 366.975,1216.31 366.308,1215.81 365.5,1215.5C 363.49,1204.5 361.157,1193.83 358.5,1183.5C 355.073,1154.15 353.073,1124.81 352.5,1095.5C 354.467,1087.9 355.134,1079.9 354.5,1071.5C 354.5,1068.83 354.5,1066.17 354.5,1063.5C 355.821,1056.93 357.154,1050.26 358.5,1043.5C 362.078,1037.82 363.411,1031.49 362.5,1024.5C 362.42,1021.22 363.087,1018.22 364.5,1015.5C 366.22,1013.34 367.053,1010.68 367,1007.5C 367.317,1009.3 367.984,1009.63 369,1008.5C 369.162,999.842 370.662,991.509 373.5,983.5C 374.687,984.894 375.354,984.727 375.5,983C 374.963,981.208 374.63,979.375 374.5,977.5C 375.886,973.266 376.553,968.932 376.5,964.5C 383.665,929.505 395.498,896.172 412,864.5C 414.857,860.102 417.691,855.768 420.5,851.5C 423.179,851.475 424.512,850.142 424.5,847.5C 427.998,847.522 429.331,846.022 428.5,843C 430.392,842.027 432.392,841.36 434.5,841C 433.027,840.29 432.36,839.124 432.5,837.5C 433.5,837.5 434.5,837.5 435.5,837.5C 435.222,835.654 435.889,834.32 437.5,833.5C 438.752,835.001 439.752,836.668 440.5,838.5C 441.325,839.386 442.325,839.719 443.5,839.5C 443.167,836.5 444.5,835.167 447.5,835.5C 447.5,834.5 447.5,833.5 447.5,832.5C 450.909,832.249 454.242,832.583 457.5,833.5C 459.167,832.667 460.833,831.833 462.5,831C 456.217,829.96 449.884,829.127 443.5,828.5C 444.689,827.571 446.022,827.238 447.5,827.5C 447.5,826.5 447.5,825.5 447.5,824.5C 449.2,824.374 450.7,823.707 452,822.5C 452.873,822.735 453.707,823.069 454.5,823.5C 455.452,821.955 455.785,820.288 455.5,818.5C 467.172,810.171 480.172,804.838 494.5,802.5 Z"/></g>
<g><path style="opacity:1" fill="#270d0c" d="M 727.5,776.5 C 728.167,780.833 728.833,785.167 729.5,789.5C 730.015,799.623 731.349,809.623 733.5,819.5C 732.167,819.5 730.833,819.5 729.5,819.5C 729.38,817.266 729.713,815.099 730.5,813C 729.272,809.146 728.606,805.146 728.5,801C 728,792.838 727.667,784.671 727.5,776.5 Z"/></g>
<g><path style="opacity:1" fill="#2b0a01" d="M 1846.5,812.5 C 1825.76,807.543 1804.76,806.209 1783.5,808.5C 1802.4,805.682 1821.4,806.016 1840.5,809.5C 1842.75,810.208 1844.75,811.208 1846.5,812.5 Z"/></g>
<g><path style="opacity:1" fill="#250e03" d="M 1171.5,751.5 C 1171.14,776.868 1171.81,802.201 1173.5,827.5C 1172.84,826.282 1172.17,824.949 1171.5,823.5C 1170.17,799.337 1170.17,775.337 1171.5,751.5 Z"/></g>
<g><path style="opacity:1" fill="#dc5a27" d="M 1846.5,812.5 C 1884.95,828.114 1912.45,855.114 1929,893.5C 1935.03,907.609 1938.86,922.276 1940.5,937.5C 1941.95,952.674 1942.62,968.007 1942.5,983.5C 1941.7,1003.17 1941.04,1022.83 1940.5,1042.5C 1940.5,1045.83 1940.5,1049.17 1940.5,1052.5C 1939.58,1057.51 1938.58,1062.51 1937.5,1067.5C 1936.84,1068.72 1936.17,1070.05 1935.5,1071.5C 1934.72,1078.21 1933.72,1084.88 1932.5,1091.5C 1931.5,1091.5 1930.5,1091.5 1929.5,1091.5C 1927.85,1100.66 1926.85,1109.99 1926.5,1119.5C 1919.21,1146.71 1910.54,1173.37 1900.5,1199.5C 1897.57,1197.96 1896.91,1198.63 1898.5,1201.5C 1896.27,1206.63 1894.94,1211.96 1894.5,1217.5C 1890.42,1230.4 1885.76,1243.07 1880.5,1255.5C 1877.17,1258.31 1875.51,1261.98 1875.5,1266.5C 1868.47,1286.23 1858.14,1303.9 1844.5,1319.5C 1843.5,1319.5 1842.5,1319.5 1841.5,1319.5C 1841.8,1317.4 1841.47,1315.4 1840.5,1313.5C 1839.51,1316.77 1839.18,1320.1 1839.5,1323.5C 1838.17,1323.5 1836.83,1323.5 1835.5,1323.5C 1835.5,1324.83 1835.5,1326.17 1835.5,1327.5C 1834.13,1327.34 1832.79,1327.51 1831.5,1328C 1831.96,1328.41 1832.29,1328.91 1832.5,1329.5C 1830.7,1330.77 1828.7,1331.43 1826.5,1331.5C 1826.65,1333.94 1825.81,1334.61 1824,1333.5C 1823.51,1334.79 1823.34,1336.13 1823.5,1337.5C 1821.49,1336.99 1819.49,1336.82 1817.5,1337C 1818.82,1338.54 1818.49,1339.71 1816.5,1340.5C 1815.07,1339.18 1814.07,1337.51 1813.5,1335.5C 1811.82,1336.78 1809.99,1337.78 1808,1338.5C 1807.42,1340.38 1807.59,1342.21 1808.5,1344C 1807.63,1345.77 1806.3,1346.44 1804.5,1346C 1803.33,1343.35 1802,1340.85 1800.5,1338.5C 1802.13,1333.57 1803.47,1328.57 1804.5,1323.5C 1806.05,1321.96 1807.39,1320.13 1808.5,1318C 1809.45,1317.52 1810.45,1317.35 1811.5,1317.5C 1811.17,1315.51 1810.84,1313.51 1810.5,1311.5C 1812.22,1305.56 1813.55,1299.56 1814.5,1293.5C 1817.37,1289.38 1818.7,1284.71 1818.5,1279.5C 1819.5,1279.5 1820.5,1279.5 1821.5,1279.5C 1821.33,1264.35 1820,1249.35 1817.5,1234.5C 1816.82,1233.4 1816.16,1232.4 1815.5,1231.5C 1809.31,1210.61 1796.98,1194.44 1778.5,1183C 1771.25,1179.65 1763.92,1176.81 1756.5,1174.5C 1756.39,1173.88 1756.06,1173.38 1755.5,1173C 1752.21,1172.12 1748.88,1171.45 1745.5,1171C 1728.82,1170.17 1712.16,1170.33 1695.5,1171.5C 1692.63,1172.26 1689.96,1173.26 1687.5,1174.5C 1639.81,1183.25 1599.98,1205.58 1568,1241.5C 1560.52,1251.13 1553.69,1261.13 1547.5,1271.5C 1542.47,1264.1 1538.47,1256.1 1535.5,1247.5C 1534.24,1243.63 1533.58,1239.63 1533.5,1235.5C 1532.82,1231.85 1533.98,1229.19 1537,1227.5C 1537.5,1225.53 1537.66,1223.53 1537.5,1221.5C 1533.76,1220.6 1531.76,1221.93 1531.5,1225.5C 1529.41,1225.44 1527.91,1224.44 1527,1222.5C 1525.37,1217.34 1524.54,1212 1524.5,1206.5C 1526.18,1206.71 1527.18,1206.05 1527.5,1204.5C 1578.83,1175.34 1616.33,1133.67 1640,1079.5C 1644.69,1068.25 1648.86,1056.92 1652.5,1045.5C 1653.56,1043.19 1654.72,1040.86 1656,1038.5C 1657.21,1031.54 1658.71,1024.71 1660.5,1018C 1660.39,1013.38 1660.39,1008.54 1660.5,1003.5C 1660.5,1003.17 1660.5,1002.83 1660.5,1002.5C 1661.27,1001.74 1661.77,1000.74 1662,999.5C 1662.67,986.5 1662.67,973.5 1662,960.5C 1661.62,959.944 1661.12,959.611 1660.5,959.5C 1657.15,940.449 1649.65,923.116 1638,907.5C 1632.9,901.895 1627.4,896.895 1621.5,892.5C 1620.59,891.262 1620.42,889.928 1621,888.5C 1625.6,884.824 1630.1,880.991 1634.5,877C 1635.9,876.405 1637.23,876.572 1638.5,877.5C 1639.77,875.696 1640.43,873.696 1640.5,871.5C 1642.39,870.464 1644.22,870.464 1646,871.5C 1645.85,870.175 1646.02,869.008 1646.5,868C 1648.81,867.503 1651.14,867.337 1653.5,867.5C 1653.5,866.167 1653.5,864.833 1653.5,863.5C 1655.5,863.5 1657.5,863.5 1659.5,863.5C 1659.21,861.712 1659.55,860.045 1660.5,858.5C 1661.17,858.833 1661.83,859.167 1662.5,859.5C 1663.32,857.681 1664.32,856.014 1665.5,854.5C 1688.07,839.384 1712.4,827.717 1738.5,819.5C 1751.17,817.247 1763.51,814.247 1775.5,810.5C 1778.17,809.833 1780.83,809.167 1783.5,808.5C 1804.76,806.209 1825.76,807.543 1846.5,812.5 Z"/></g>
<g><path style="opacity:1" fill="#c4643a" d="M 1775.5,810.5 C 1763.51,814.247 1751.17,817.247 1738.5,819.5C 1750.39,815.113 1762.72,812.113 1775.5,810.5 Z"/></g>
<g><path style="opacity:1" fill="#c45e3a" d="M 567.5,814.5 C 574.255,816.712 580.588,819.712 586.5,823.5C 581.32,821.578 575.987,820.245 570.5,819.5C 570.279,817.336 569.279,815.67 567.5,814.5 Z"/></g>
<g><path style="opacity:1" fill="#d15f39" d="M 1201.5,817.5 C 1195.84,823.458 1190.18,829.458 1184.5,835.5C 1184.46,834.417 1184.13,833.417 1183.5,832.5C 1185.66,830.178 1187.99,828.011 1190.5,826C 1189.83,825.667 1189.17,825.333 1188.5,825C 1189.94,824.781 1191.27,824.281 1192.5,823.5C 1194.45,819.87 1197.45,817.87 1201.5,817.5 Z"/></g>
<g><path style="opacity:1" fill="#d35c31" d="M 455.5,818.5 C 455.785,820.288 455.452,821.955 454.5,823.5C 453.707,823.069 452.873,822.735 452,822.5C 450.7,823.707 449.2,824.374 447.5,824.5C 447.5,825.5 447.5,826.5 447.5,827.5C 446.022,827.238 444.689,827.571 443.5,828.5C 449.884,829.127 456.217,829.96 462.5,831C 460.833,831.833 459.167,832.667 457.5,833.5C 454.242,832.583 450.909,832.249 447.5,832.5C 447.5,833.5 447.5,834.5 447.5,835.5C 444.5,835.167 443.167,836.5 443.5,839.5C 442.325,839.719 441.325,839.386 440.5,838.5C 439.752,836.668 438.752,835.001 437.5,833.5C 435.889,834.32 435.222,835.654 435.5,837.5C 434.5,837.5 433.5,837.5 432.5,837.5C 432.36,839.124 433.027,840.29 434.5,841C 432.392,841.36 430.392,842.027 428.5,843C 429.331,846.022 427.998,847.522 424.5,847.5C 424.512,850.142 423.179,851.475 420.5,851.5C 429.286,837.379 440.952,826.379 455.5,818.5 Z"/></g>
<g><path style="opacity:1" fill="#c4673d" d="M 1174.5,830.5 C 1176.29,835.067 1177.12,840.067 1177,845.5C 1177.38,844.944 1177.88,844.611 1178.5,844.5C 1178.57,846.027 1177.91,847.027 1176.5,847.5C 1175.12,842.056 1174.45,836.389 1174.5,830.5 Z"/></g>
<g><path style="opacity:1" fill="#d06038" d="M 1665.5,854.5 C 1664.32,856.014 1663.32,857.681 1662.5,859.5C 1661.83,859.167 1661.17,858.833 1660.5,858.5C 1659.55,860.045 1659.21,861.712 1659.5,863.5C 1657.5,863.5 1655.5,863.5 1653.5,863.5C 1653.5,864.833 1653.5,866.167 1653.5,867.5C 1651.14,867.337 1648.81,867.503 1646.5,868C 1646.02,869.008 1645.85,870.175 1646,871.5C 1644.22,870.464 1642.39,870.464 1640.5,871.5C 1648.01,864.667 1656.34,859.001 1665.5,854.5 Z"/></g>
<g><path style="opacity:1" fill="#c3653a" d="M 1534.5,863.5 C 1533.44,869.769 1531.77,875.769 1529.5,881.5C 1529.34,874.823 1531,868.823 1534.5,863.5 Z"/></g>
<g><path style="opacity:1" fill="#fcfdea" d="M 1616.5,890.5 C 1618.05,891.441 1619.72,892.107 1621.5,892.5C 1627.4,896.895 1632.9,901.895 1638,907.5C 1649.65,923.116 1657.15,940.449 1660.5,959.5C 1661.83,973.833 1661.83,988.167 1660.5,1002.5C 1660.5,1002.83 1660.5,1003.17 1660.5,1003.5C 1658.07,1017.42 1655.4,1031.42 1652.5,1045.5C 1648.86,1056.92 1644.69,1068.25 1640,1079.5C 1616.33,1133.67 1578.83,1175.34 1527.5,1204.5C 1526.17,1204.83 1524.83,1205.17 1523.5,1205.5C 1523.33,1204.18 1523.66,1203.01 1524.5,1202C 1522.5,1201.33 1520.5,1201.33 1518.5,1202C 1517.55,1203.96 1516.21,1205.62 1514.5,1207C 1509.4,1209.39 1504.06,1211.23 1498.5,1212.5C 1479.21,1211.68 1459.88,1211.18 1440.5,1211C 1437.12,1209.17 1433.79,1209.34 1430.5,1211.5C 1428.5,1211 1426.5,1210.5 1424.5,1210C 1421.78,1207.5 1418.95,1205 1416,1202.5C 1416.62,1200.91 1416.28,1199.57 1415,1198.5C 1414.67,1198.83 1414.33,1199.17 1414,1199.5C 1413.34,1196.72 1412.51,1194.05 1411.5,1191.5C 1408.83,1191.5 1406.17,1191.5 1403.5,1191.5C 1398.36,1183.2 1394.86,1174.2 1393,1164.5C 1388.76,1143.57 1388.43,1122.57 1392,1101.5C 1394.05,1088.07 1396.55,1074.73 1399.5,1061.5C 1403.19,1049.92 1407.03,1038.25 1411,1026.5C 1429.71,973.657 1462.54,932.324 1509.5,902.5C 1515.36,899.738 1521.03,896.738 1526.5,893.5C 1550.94,882.652 1576.27,879.819 1602.5,885C 1607.39,886.351 1612.06,888.185 1616.5,890.5 Z"/></g>
<g><path style="opacity:1" fill="#c55f39" d="M 1640.5,871.5 C 1640.43,873.696 1639.77,875.696 1638.5,877.5C 1637.23,876.572 1635.9,876.405 1634.5,877C 1630.1,880.991 1625.6,884.824 1621,888.5C 1620.42,889.928 1620.59,891.262 1621.5,892.5C 1619.72,892.107 1618.05,891.441 1616.5,890.5C 1623.92,883.412 1631.92,877.079 1640.5,871.5 Z"/></g>
<g><path style="opacity:1" fill="#c36139" d="M 748.5,873.5 C 749.467,874.806 750.801,875.473 752.5,875.5C 752.336,878.187 752.503,880.854 753,883.5C 756.389,889.886 758.889,896.553 760.5,903.5C 755.539,893.962 751.539,883.962 748.5,873.5 Z"/></g>
<g><path style="opacity:1" fill="#c25f36" d="M 1529.5,881.5 C 1528.5,885.5 1527.5,889.5 1526.5,893.5C 1521.03,896.738 1515.36,899.738 1509.5,902.5C 1509.94,900.926 1510.94,899.759 1512.5,899C 1516.07,897.201 1519.74,895.701 1523.5,894.5C 1525.16,890.692 1526.5,886.692 1527.5,882.5C 1528.18,882.137 1528.85,881.804 1529.5,881.5 Z"/></g>
<g><path style="opacity:1" fill="#d05e33" d="M 1368.5,933.5 C 1365.02,912.051 1358.69,891.384 1349.5,871.5C 1353.08,870.181 1356.41,870.514 1359.5,872.5C 1358.76,873.287 1357.92,873.953 1357,874.5C 1356.17,878.211 1356.34,881.878 1357.5,885.5C 1358.19,884.975 1358.69,884.308 1359,883.5C 1359.67,889.737 1361,896.07 1363,902.5C 1364.51,903.505 1365.67,904.838 1366.5,906.5C 1367.88,915.447 1368.54,924.447 1368.5,933.5 Z"/></g>
<g><path style="opacity:1" fill="#c85f33" d="M 763.5,911.5 C 764.376,911.369 765.043,911.702 765.5,912.5C 766.986,914.302 767.986,916.302 768.5,918.5C 770.167,918.5 771.833,918.5 773.5,918.5C 773.357,920.262 773.691,921.929 774.5,923.5C 773.689,924.216 773.022,925.05 772.5,926C 774.913,929.898 776.58,934.064 777.5,938.5C 772.595,929.692 767.928,920.692 763.5,911.5 Z"/></g>
<g><path style="opacity:1" fill="#ca6136" d="M 1104.5,879.5 C 1098.52,913.1 1090.52,946.1 1080.5,978.5C 1081.37,973.054 1082.71,967.721 1084.5,962.5C 1083.78,960.218 1083.44,957.884 1083.5,955.5C 1084.5,955.5 1085.5,955.5 1086.5,955.5C 1089.99,939.524 1093.49,923.524 1097,907.5C 1097.5,907 1098,906.5 1098.5,906C 1097.41,903.936 1097.24,901.769 1098,899.5C 1101,897.373 1101,895.04 1098,892.5C 1097.15,889.947 1097.48,887.614 1099,885.5C 1099.28,887.886 1100.28,888.552 1102,887.5C 1101.95,884.325 1102.78,881.658 1104.5,879.5 Z"/></g>
<g><path style="opacity:1" fill="#ce5f2f" d="M 1023.5,964.5 C 1008.24,954.648 991.572,951.314 973.5,954.5C 973.918,953.778 974.584,953.278 975.5,953C 986.023,951.938 996.356,952.438 1006.5,954.5C 1009.86,953.444 1013.2,953.444 1016.5,954.5C 1015.36,955.891 1015.36,957.224 1016.5,958.5C 1018.43,958.901 1019.93,959.901 1021,961.5C 1021.72,960.549 1022.55,960.383 1023.5,961C 1022.32,962.145 1022.32,963.312 1023.5,964.5 Z"/></g>
<g><path style="opacity:1" fill="#c4643c" d="M 1368.5,935.5 C 1370,944.284 1370.67,953.284 1370.5,962.5C 1370.17,968.5 1369.83,974.5 1369.5,980.5C 1368.83,983.306 1368.17,985.972 1367.5,988.5C 1369.45,970.858 1369.78,953.191 1368.5,935.5 Z"/></g>
<g><path style="opacity:1" fill="#fcfdea" d="M 1023.5,964.5 C 1035.06,972.055 1045.06,981.388 1053.5,992.5C 1057.2,997.191 1060.86,1001.86 1064.5,1006.5C 1065.47,1008.8 1066.81,1010.8 1068.5,1012.5C 1080.95,1031.74 1090.45,1052.41 1097,1074.5C 1098.39,1081.49 1099.55,1088.49 1100.5,1095.5C 1100.92,1111.56 1100.25,1127.56 1098.5,1143.5C 1088.92,1198.55 1060.59,1240.72 1013.5,1270C 997.027,1278.61 979.694,1284.11 961.5,1286.5C 938.232,1288.76 915.565,1286.1 893.5,1278.5C 892.486,1277.33 891.153,1276.66 889.5,1276.5C 856.675,1258.72 840.675,1230.89 841.5,1193C 843.013,1165.42 847.179,1138.26 854,1111.5C 859.937,1092.63 867.771,1074.63 877.5,1057.5C 887.975,1040.56 898.475,1023.56 909,1006.5C 914.618,998.547 920.618,990.88 927,983.5C 939.508,968.84 955.008,959.173 973.5,954.5C 991.572,951.314 1008.24,954.648 1023.5,964.5 Z"/></g>
<g><path style="opacity:1" fill="#2c0a01" d="M 1941.5,937.5 C 1942.92,942.602 1943.75,947.936 1944,953.5C 1944.83,973.004 1944.66,992.338 1943.5,1011.5C 1943.97,986.789 1943.3,962.122 1941.5,937.5 Z"/></g>
<g><path style="opacity:1" fill="#cd5e37" d="M 784.5,951.5 C 785.847,952.171 787.014,952.171 788,951.5C 788.347,958.888 792.18,962.554 799.5,962.5C 799.785,964.288 799.452,965.955 798.5,967.5C 797.749,966.624 797.249,965.624 797,964.5C 796.5,965 796,965.5 795.5,966C 797.782,968.397 799.116,971.231 799.5,974.5C 794.14,967.126 789.14,959.459 784.5,951.5 Z"/></g>
<g><path style="opacity:1" fill="#c9623f" d="M 1940.5,937.5 C 1940.83,937.5 1941.17,937.5 1941.5,937.5C 1943.3,962.122 1943.97,986.789 1943.5,1011.5C 1943.5,1011.83 1943.5,1012.17 1943.5,1012.5C 1942.72,1022.52 1941.72,1032.52 1940.5,1042.5C 1941.04,1022.83 1941.7,1003.17 1942.5,983.5C 1942.62,968.007 1941.95,952.674 1940.5,937.5 Z"/></g>
<g><path style="opacity:1" fill="#c46738" d="M 1660.5,959.5 C 1661.12,959.611 1661.62,959.944 1662,960.5C 1662.67,973.5 1662.67,986.5 1662,999.5C 1661.77,1000.74 1661.27,1001.74 1660.5,1002.5C 1661.83,988.167 1661.83,973.833 1660.5,959.5 Z"/></g>
<g><path style="opacity:1" fill="#c8603d" d="M 1053.5,992.5 C 1055.39,993.048 1057.06,994.048 1058.5,995.5C 1061.3,998.775 1063.3,1002.44 1064.5,1006.5C 1060.86,1001.86 1057.2,997.191 1053.5,992.5 Z"/></g>
<g><path style="opacity:1" fill="#ca6034" d="M 376.5,964.5 C 376.553,968.932 375.886,973.266 374.5,977.5C 374.63,979.375 374.963,981.208 375.5,983C 375.354,984.727 374.687,984.894 373.5,983.5C 370.662,991.509 369.162,999.842 369,1008.5C 367.984,1009.63 367.317,1009.3 367,1007.5C 367.053,1010.68 366.22,1013.34 364.5,1015.5C 367.74,998.212 371.74,981.212 376.5,964.5 Z"/></g>
<g><path style="opacity:1" fill="#c7613a" d="M 1660.5,1003.5 C 1660.39,1008.54 1660.39,1013.38 1660.5,1018C 1658.71,1024.71 1657.21,1031.54 1656,1038.5C 1654.72,1040.86 1653.56,1043.19 1652.5,1045.5C 1655.4,1031.42 1658.07,1017.42 1660.5,1003.5 Z"/></g>
<g><path style="opacity:1" fill="#cc5f36" d="M 742.5,1016.5 C 744.294,1022.8 745.96,1029.14 747.5,1035.5C 747.833,1039.5 748.167,1043.5 748.5,1047.5C 746.75,1044.64 745.917,1041.31 746,1037.5C 745.667,1038.17 745.333,1038.83 745,1039.5C 743.767,1037.58 743.6,1035.41 744.5,1033C 742.765,1027.72 742.098,1022.22 742.5,1016.5 Z"/></g>
<g><path style="opacity:1" fill="#c06234" d="M 362.5,1024.5 C 363.411,1031.49 362.078,1037.82 358.5,1043.5C 359.343,1036.94 360.677,1030.61 362.5,1024.5 Z"/></g>
<g><path style="opacity:1" fill="#300d02" d="M 1943.5,1012.5 C 1943.72,1026.08 1942.72,1039.41 1940.5,1052.5C 1940.5,1049.17 1940.5,1045.83 1940.5,1042.5C 1941.72,1032.52 1942.72,1022.52 1943.5,1012.5 Z"/></g>
<g><path style="opacity:1" fill="#2f0c03" d="M 747.5,1035.5 C 750.129,1045.86 751.462,1056.53 751.5,1067.5C 750.679,1061.14 749.679,1054.81 748.5,1048.5C 748.5,1048.17 748.5,1047.83 748.5,1047.5C 748.167,1043.5 747.833,1039.5 747.5,1035.5 Z"/></g>
<g><path style="opacity:1" fill="#bf643d" d="M 1368.5,1075.5 C 1360.66,1079.21 1352.33,1081.55 1343.5,1082.5C 1351.41,1079.44 1359.75,1077.1 1368.5,1075.5 Z"/></g>
<g><path style="opacity:1" fill="#c2633d" d="M 748.5,1048.5 C 749.679,1054.81 750.679,1061.14 751.5,1067.5C 751.683,1087.51 751.35,1107.51 750.5,1127.5C 749.833,1130.17 749.167,1132.83 748.5,1135.5C 749.224,1120.84 749.891,1106.18 750.5,1091.5C 750.543,1077.07 749.876,1062.73 748.5,1048.5 Z"/></g>
<g><path style="opacity:1" fill="#cb6945" d="M 354.5,1071.5 C 355.134,1079.9 354.467,1087.9 352.5,1095.5C 352.323,1087.28 352.99,1079.28 354.5,1071.5 Z"/></g>
<g><path style="opacity:1" fill="#2f0b05" d="M 354.5,1063.5 C 354.5,1066.17 354.5,1068.83 354.5,1071.5C 352.99,1079.28 352.323,1087.28 352.5,1095.5C 352.167,1095.5 351.833,1095.5 351.5,1095.5C 351.545,1087.66 351.878,1079.82 352.5,1072C 352.519,1068.75 353.186,1065.92 354.5,1063.5 Z"/></g>
<g><path style="opacity:1" fill="#c96038" d="M 1937.5,1067.5 C 1935.35,1085.27 1931.68,1102.6 1926.5,1119.5C 1926.85,1109.99 1927.85,1100.66 1929.5,1091.5C 1930.5,1091.5 1931.5,1091.5 1932.5,1091.5C 1933.72,1084.88 1934.72,1078.21 1935.5,1071.5C 1936.17,1070.05 1936.84,1068.72 1937.5,1067.5 Z"/></g>
<g><path style="opacity:1" fill="#b76338" d="M 1100.5,1095.5 C 1101.17,1095.5 1101.83,1095.5 1102.5,1095.5C 1102.5,1095.83 1102.5,1096.17 1102.5,1096.5C 1101.72,1110 1101.05,1123.67 1100.5,1137.5C 1100.46,1139.95 1099.79,1141.95 1098.5,1143.5C 1100.25,1127.56 1100.92,1111.56 1100.5,1095.5 Z"/></g>
<g><path style="opacity:1" fill="#d55d2d" d="M 1151.5,1084.5 C 1153.4,1087.98 1155.07,1091.65 1156.5,1095.5C 1154.61,1095.7 1153.11,1095.04 1152,1093.5C 1152,1091.5 1152,1089.5 1152,1087.5C 1147.43,1085.77 1143.6,1086.77 1140.5,1090.5C 1142.25,1092.7 1144.59,1093.87 1147.5,1094C 1141.56,1095.01 1135.89,1094.17 1130.5,1091.5C 1129.56,1091.61 1128.72,1091.94 1128,1092.5C 1127.78,1093.94 1127.28,1095.27 1126.5,1096.5C 1123.2,1095.46 1120.04,1094.12 1117,1092.5C 1114.73,1093.86 1112.23,1094.53 1109.5,1094.5C 1109.93,1097.56 1110.59,1100.56 1111.5,1103.5C 1108.88,1103.23 1106.38,1103.56 1104,1104.5C 1103.82,1101.64 1103.32,1098.97 1102.5,1096.5C 1102.5,1096.17 1102.5,1095.83 1102.5,1095.5C 1118.38,1090.19 1134.71,1086.52 1151.5,1084.5 Z"/></g>
<g><path style="opacity:1" fill="#dc5a27" d="M 1156.5,1095.5 C 1163.79,1110.74 1172.62,1125.07 1183,1138.5C 1193.27,1150.95 1205.44,1160.95 1219.5,1168.5C 1220.18,1170.18 1221.52,1170.84 1223.5,1170.5C 1223.5,1171.5 1223.5,1172.5 1223.5,1173.5C 1226.75,1174.38 1230.09,1175.04 1233.5,1175.5C 1241.16,1174.9 1248.83,1174.4 1256.5,1174C 1261.99,1173.22 1266.99,1171.38 1271.5,1168.5C 1289.55,1160.12 1303.88,1147.45 1314.5,1130.5C 1327.27,1139.22 1339.27,1148.88 1350.5,1159.5C 1352.17,1163.17 1354.83,1165.83 1358.5,1167.5C 1365.25,1172.91 1370.92,1179.25 1375.5,1186.5C 1376.04,1189.47 1377.37,1191.97 1379.5,1194C 1378.92,1195.71 1377.76,1196.88 1376,1197.5C 1375.52,1198.45 1375.35,1199.45 1375.5,1200.5C 1377.83,1200.75 1379.83,1200.09 1381.5,1198.5C 1383.36,1199.26 1385.03,1200.26 1386.5,1201.5C 1387.22,1203.76 1387.55,1206.1 1387.5,1208.5C 1388.5,1208.5 1389.5,1208.5 1390.5,1208.5C 1390.5,1209.83 1390.5,1211.17 1390.5,1212.5C 1392.51,1212.39 1394.18,1213.06 1395.5,1214.5C 1402.55,1223.55 1409.21,1232.88 1415.5,1242.5C 1415.65,1245.11 1416.81,1247.11 1419,1248.5C 1419.46,1251.39 1419.12,1254.06 1418,1256.5C 1420.85,1256.23 1423.69,1256.73 1426.5,1258C 1428.71,1263.96 1427.04,1268.29 1421.5,1271C 1419.83,1271.67 1418.17,1271.67 1416.5,1271C 1415.47,1269.37 1414.13,1268.21 1412.5,1267.5C 1406.04,1261.54 1399.7,1255.37 1393.5,1249C 1374.18,1232.84 1352.18,1222.34 1327.5,1217.5C 1325.26,1216.19 1322.59,1215.52 1319.5,1215.5C 1304.96,1214.04 1290.46,1214.37 1276,1216.5C 1274.01,1216.57 1272.51,1217.24 1271.5,1218.5C 1227.87,1227.48 1189.2,1246.32 1155.5,1275C 1120.88,1298.05 1083.21,1314.21 1042.5,1323.5C 1040.26,1322.55 1037.93,1321.88 1035.5,1321.5C 1035.5,1322.5 1035.5,1323.5 1035.5,1324.5C 1027.23,1326.37 1018.9,1328.03 1010.5,1329.5C 1009.4,1330.18 1008.4,1330.84 1007.5,1331.5C 991.129,1336.68 975.129,1343.01 959.5,1350.5C 957.278,1350.18 955.444,1350.84 954,1352.5C 951.959,1351.58 949.792,1351.24 947.5,1351.5C 947.5,1353.17 947.5,1354.83 947.5,1356.5C 946.07,1356.58 944.736,1356.25 943.5,1355.5C 942.614,1356.32 942.281,1357.32 942.5,1358.5C 940.857,1358.48 939.524,1359.15 938.5,1360.5C 936.902,1359.52 935.235,1359.35 933.5,1360C 934.328,1360.91 935.328,1361.58 936.5,1362C 932.383,1362.72 929.383,1364.88 927.5,1368.5C 880.349,1399.14 849.016,1441.47 833.5,1495.5C 831.119,1500.97 830.119,1506.8 830.5,1513C 830.45,1519.06 831.117,1524.89 832.5,1530.5C 839.608,1573.21 861.941,1605.38 899.5,1627C 928.959,1642.76 960.292,1652.6 993.5,1656.5C 996.488,1658.14 999.821,1658.97 1003.5,1659C 1002.06,1659.22 1000.73,1659.72 999.5,1660.5C 1001.67,1661.2 1003.67,1662.2 1005.5,1663.5C 1006.6,1662.37 1006.27,1661.54 1004.5,1661C 1014.91,1660.11 1025.25,1660.61 1035.5,1662.5C 1048.66,1661.93 1061.66,1661.26 1074.5,1660.5C 1074.83,1660.5 1075.17,1660.5 1075.5,1660.5C 1100.5,1660.5 1125.5,1660.5 1150.5,1660.5C 1201.96,1664.75 1247.96,1682.58 1288.5,1714C 1302.83,1727 1316.5,1740.67 1329.5,1755C 1353.7,1773.94 1380.37,1788.44 1409.5,1798.5C 1417.34,1801.74 1425.67,1803.74 1434.5,1804.5C 1435.5,1804.83 1436.5,1805.17 1437.5,1805.5C 1437.29,1806.09 1436.96,1806.59 1436.5,1807C 1438.17,1807.17 1439.83,1807.33 1441.5,1807.5C 1464.8,1805.75 1487.13,1803.25 1508.5,1800C 1508.96,1799.59 1509.29,1799.09 1509.5,1798.5C 1507.58,1797.69 1505.58,1797.19 1503.5,1797C 1506.85,1796.44 1509.51,1794.94 1511.5,1792.5C 1560.88,1768.44 1591.21,1729.44 1602.5,1675.5C 1603.29,1674.39 1603.79,1673.06 1604,1671.5C 1604.67,1658.17 1604.67,1644.83 1604,1631.5C 1602.9,1621.64 1600.9,1611.97 1598,1602.5C 1597.62,1603.06 1597.12,1603.39 1596.5,1603.5C 1587.63,1579.76 1576.63,1557.1 1563.5,1535.5C 1562.14,1531.12 1559.97,1527.12 1557,1523.5C 1556.51,1522.21 1556.34,1520.87 1556.5,1519.5C 1555.17,1519.5 1553.83,1519.5 1552.5,1519.5C 1544.55,1508.22 1536.22,1497.22 1527.5,1486.5C 1527.49,1484.98 1526.82,1483.82 1525.5,1483C 1527.18,1482.65 1528.18,1481.65 1528.5,1480C 1527.24,1475.17 1527.24,1470.34 1528.5,1465.5C 1529.62,1464.46 1530.96,1463.79 1532.5,1463.5C 1534.78,1464.48 1537.11,1465.14 1539.5,1465.5C 1539.5,1467.5 1539.5,1469.5 1539.5,1471.5C 1542.17,1471.5 1544.83,1471.5 1547.5,1471.5C 1547.77,1469.55 1547.11,1468.05 1545.5,1467C 1547.12,1464.92 1548.62,1462.75 1550,1460.5C 1551.01,1461.34 1552.18,1461.67 1553.5,1461.5C 1553.34,1463.2 1553.51,1464.87 1554,1466.5C 1555.44,1464.84 1557.28,1464.18 1559.5,1464.5C 1560.03,1467.78 1562.03,1469.11 1565.5,1468.5C 1582.05,1483.25 1601.38,1492.25 1623.5,1495.5C 1639.07,1497.3 1654.57,1496.64 1670,1493.5C 1673.21,1491.72 1676.37,1490.06 1679.5,1488.5C 1682.37,1486.65 1685.37,1484.98 1688.5,1483.5C 1713.66,1506.82 1736.49,1532.15 1757,1559.5C 1763.78,1570.06 1770.28,1580.73 1776.5,1591.5C 1782.15,1603.79 1786.82,1616.46 1790.5,1629.5C 1790.34,1631.86 1790.5,1634.19 1791,1636.5C 1793.15,1641.82 1794.98,1647.16 1796.5,1652.5C 1798.16,1658.77 1799.49,1665.11 1800.5,1671.5C 1800.5,1674.5 1800.5,1677.5 1800.5,1680.5C 1800.83,1694.18 1800.5,1707.85 1799.5,1721.5C 1798.65,1731.63 1797.65,1741.63 1796.5,1751.5C 1793.3,1758.98 1791.3,1766.98 1790.5,1775.5C 1785.88,1791.37 1779.88,1806.71 1772.5,1821.5C 1745.69,1871.14 1706.69,1907.97 1655.5,1932C 1643.53,1937.27 1631.2,1941.43 1618.5,1944.5C 1615.1,1944.18 1611.77,1944.51 1608.5,1945.5C 1605.06,1945.91 1602.06,1946.91 1599.5,1948.5C 1591.47,1948.96 1583.47,1949.62 1575.5,1950.5C 1554.1,1951.02 1532.77,1950.19 1511.5,1948C 1513.25,1947.53 1514.91,1946.86 1516.5,1946C 1512.72,1945.79 1509.05,1945.62 1505.5,1945.5C 1507.99,1943.29 1510.99,1942.12 1514.5,1942C 1500.81,1941.28 1487.15,1941.45 1473.5,1942.5C 1438.9,1936.41 1406.56,1924.41 1376.5,1906.5C 1366.31,1899.23 1355.31,1893.23 1343.5,1888.5C 1335.82,1884.6 1327.82,1881.27 1319.5,1878.5C 1307.96,1874.1 1296.29,1870.1 1284.5,1866.5C 1282.53,1864.91 1280.19,1863.74 1277.5,1863C 1269.67,1862.42 1262.5,1859.92 1256,1855.5C 1254.44,1856.85 1252.61,1857.51 1250.5,1857.5C 1236.56,1855.61 1222.56,1854.61 1208.5,1854.5C 1190.83,1854.5 1173.17,1854.5 1155.5,1854.5C 1147.14,1854.17 1138.81,1854.5 1130.5,1855.5C 1125.59,1856.02 1120.92,1857.02 1116.5,1858.5C 1112.38,1859.71 1108.05,1860.38 1103.5,1860.5C 1099.12,1860.17 1094.78,1860.51 1090.5,1861.5C 1087.38,1861.92 1084.72,1862.92 1082.5,1864.5C 1071.65,1867.3 1060.65,1869.96 1049.5,1872.5C 1046.42,1872.74 1043.42,1872.41 1040.5,1871.5C 1038.73,1872.04 1038.4,1872.87 1039.5,1874C 1035.89,1875.2 1032.22,1876.2 1028.5,1877C 1027.43,1877.85 1026.43,1878.69 1025.5,1879.5C 1009.83,1884.95 994.165,1890.61 978.5,1896.5C 970.56,1898.38 962.893,1900.88 955.5,1904C 953.144,1904.16 950.811,1904.16 948.5,1904C 947.167,1904.67 947.167,1905.33 948.5,1906C 947.429,1906.85 946.429,1907.69 945.5,1908.5C 940.314,1910.68 934.981,1912.68 929.5,1914.5C 905.22,1922.07 880.553,1928.07 855.5,1932.5C 843.26,1933.21 831.26,1935.21 819.5,1938.5C 819.167,1938.5 818.833,1938.5 818.5,1938.5C 802.715,1939.56 787.048,1940.72 771.5,1942C 753.827,1942.52 736.161,1942.35 718.5,1941.5C 714.958,1941.81 711.625,1941.48 708.5,1940.5C 708.389,1939.88 708.056,1939.38 707.5,1939C 701.165,1938.44 694.832,1937.94 688.5,1937.5C 673.909,1935.69 659.909,1932.02 646.5,1926.5C 645.71,1925.21 644.71,1924.04 643.5,1923C 639.344,1922.59 635.344,1921.59 631.5,1920C 628.956,1918.44 628.956,1916.94 631.5,1915.5C 631,1915.17 630.5,1914.83 630,1914.5C 628.208,1915.04 626.375,1915.37 624.5,1915.5C 621.802,1914.81 619.135,1914.14 616.5,1913.5C 614.683,1911.99 613.683,1909.99 613.5,1907.5C 609.733,1907.97 606.899,1906.64 605,1903.5C 602.662,1904.73 600.829,1904.07 599.5,1901.5C 597.955,1900.55 596.288,1900.21 594.5,1900.5C 577.963,1890.3 563.963,1877.3 552.5,1861.5C 550.448,1858.56 548.781,1855.4 547.5,1852C 547.643,1849.85 548.643,1848.18 550.5,1847C 548.521,1846.32 546.854,1846.82 545.5,1848.5C 540.915,1843.62 536.582,1838.62 532.5,1833.5C 532.5,1833.17 532.5,1832.83 532.5,1832.5C 532.523,1830.4 531.856,1828.57 530.5,1827C 530.735,1826.13 531.069,1825.29 531.5,1824.5C 530.726,1823.29 529.893,1823.29 529,1824.5C 524.873,1815.2 520.373,1805.54 515.5,1795.5C 514.5,1792.83 513.5,1790.17 512.5,1787.5C 512.5,1786.17 512.5,1784.83 512.5,1783.5C 510.726,1768.21 509.393,1752.88 508.5,1737.5C 509.682,1718.05 511.682,1698.71 514.5,1679.5C 515.584,1671.16 517.584,1663.16 520.5,1655.5C 522.522,1652.22 524.022,1648.56 525,1644.5C 525.915,1645.33 526.581,1646.33 527,1647.5C 527.333,1647.17 527.667,1646.83 528,1646.5C 528.495,1643.47 528.329,1640.47 527.5,1637.5C 530.901,1637.28 533.401,1635.61 535,1632.5C 535.212,1629.24 535.712,1626.08 536.5,1623C 536.043,1622.59 535.709,1622.09 535.5,1621.5C 536.774,1616.88 537.774,1612.21 538.5,1607.5C 539.5,1607.5 540.5,1607.5 541.5,1607.5C 542.358,1602.01 543.691,1596.67 545.5,1591.5C 551.571,1577.68 558.904,1564.68 567.5,1552.5C 569.173,1551.66 570.34,1550.32 571,1548.5C 572.953,1552.98 574.286,1557.64 575,1562.5C 575.5,1555.51 575.666,1548.51 575.5,1541.5C 578.635,1541.45 580.302,1539.79 580.5,1536.5C 581.167,1537.5 581.833,1538.5 582.5,1539.5C 583.318,1536.89 583.818,1534.23 584,1531.5C 585.481,1530.53 586.315,1529.2 586.5,1527.5C 589.831,1522.2 593.664,1517.2 598,1512.5C 600.703,1509.63 603.536,1506.96 606.5,1504.5C 611.894,1500.11 616.561,1495.11 620.5,1489.5C 623.813,1486.52 627.147,1483.52 630.5,1480.5C 631.298,1482.08 631.798,1483.74 632,1485.5C 634.775,1484.86 636.941,1483.36 638.5,1481C 636.845,1479.56 636.178,1477.72 636.5,1475.5C 637.833,1475.5 639.167,1475.5 640.5,1475.5C 643.943,1470.79 647.276,1465.96 650.5,1461C 652.112,1460.28 653.612,1460.45 655,1461.5C 655.494,1459.87 655.66,1458.2 655.5,1456.5C 658.518,1456.34 661.518,1456.5 664.5,1457C 665.693,1459.03 667.36,1460.53 669.5,1461.5C 671.334,1460.25 673.334,1459.58 675.5,1459.5C 675.5,1458.17 675.5,1456.83 675.5,1455.5C 672.833,1455.5 670.167,1455.5 667.5,1455.5C 666.792,1452.85 666.792,1450.35 667.5,1448C 668.65,1446.02 669.984,1444.19 671.5,1442.5C 688.929,1427.94 707.929,1415.61 728.5,1405.5C 735.224,1403.97 740.891,1400.64 745.5,1395.5C 786.362,1369.99 824.695,1340.99 860.5,1308.5C 862.196,1308.31 863.529,1307.48 864.5,1306C 867.553,1305.82 870.553,1305.32 873.5,1304.5C 871.726,1303.81 870.059,1302.98 868.5,1302C 869.649,1300.26 870.983,1300.09 872.5,1301.5C 873.072,1299.08 874.072,1296.92 875.5,1295C 876.672,1294.65 877.838,1294.81 879,1295.5C 881.578,1293.98 884.411,1293.15 887.5,1293C 885.406,1291.65 883.073,1291.15 880.5,1291.5C 880.351,1290.45 880.517,1289.45 881,1288.5C 883.782,1286.23 885.949,1283.56 887.5,1280.5C 887.733,1278.94 888.4,1277.6 889.5,1276.5C 891.153,1276.66 892.486,1277.33 893.5,1278.5C 894.737,1280.1 896.404,1281.26 898.5,1282C 918.747,1287.8 939.414,1289.8 960.5,1288C 961.056,1287.62 961.389,1287.12 961.5,1286.5C 979.694,1284.11 997.027,1278.61 1013.5,1270C 1060.59,1240.72 1088.92,1198.55 1098.5,1143.5C 1099.79,1141.95 1100.46,1139.95 1100.5,1137.5C 1101.05,1123.67 1101.72,1110 1102.5,1096.5C 1103.32,1098.97 1103.82,1101.64 1104,1104.5C 1106.38,1103.56 1108.88,1103.23 1111.5,1103.5C 1110.59,1100.56 1109.93,1097.56 1109.5,1094.5C 1112.23,1094.53 1114.73,1093.86 1117,1092.5C 1120.04,1094.12 1123.2,1095.46 1126.5,1096.5C 1127.28,1095.27 1127.78,1093.94 1128,1092.5C 1128.72,1091.94 1129.56,1091.61 1130.5,1091.5C 1135.89,1094.17 1141.56,1095.01 1147.5,1094C 1144.59,1093.87 1142.25,1092.7 1140.5,1090.5C 1143.6,1086.77 1147.43,1085.77 1152,1087.5C 1152,1089.5 1152,1091.5 1152,1093.5C 1153.11,1095.04 1154.61,1095.7 1156.5,1095.5 Z"/></g>
<g><path style="opacity:1" fill="#240f07" d="M 751.5,1067.5 C 752.663,1090 752.83,1112.66 752,1135.5C 751.817,1132.64 751.317,1129.97 750.5,1127.5C 751.35,1107.51 751.683,1087.51 751.5,1067.5 Z"/></g>
<g><path style="opacity:1" fill="#250f06" d="M 351.5,1095.5 C 350.987,1122.31 352.653,1148.98 356.5,1175.5C 354.471,1168.07 352.638,1160.41 351,1152.5C 350.171,1133.33 350.338,1114.33 351.5,1095.5 Z"/></g>
<g><path style="opacity:1" fill="#c36140" d="M 748.5,1135.5 C 748.119,1143.46 746.786,1151.12 744.5,1158.5C 745.23,1150.46 746.563,1142.79 748.5,1135.5 Z"/></g>
<g><path style="opacity:1" fill="#bf643c" d="M 351.5,1095.5 C 351.833,1095.5 352.167,1095.5 352.5,1095.5C 353.073,1124.81 355.073,1154.15 358.5,1183.5C 357.745,1180.95 357.078,1178.28 356.5,1175.5C 352.653,1148.98 350.987,1122.31 351.5,1095.5 Z"/></g>
<g><path style="opacity:1" fill="#260f09" d="M 750.5,1127.5 C 750.936,1135.69 750.27,1143.69 748.5,1151.5C 748.572,1153.56 748.905,1155.56 749.5,1157.5C 749.062,1158.51 748.396,1158.51 747.5,1157.5C 746.304,1159.14 745.304,1160.81 744.5,1162.5C 744.5,1161.17 744.5,1159.83 744.5,1158.5C 746.786,1151.12 748.119,1143.46 748.5,1135.5C 749.167,1132.83 749.833,1130.17 750.5,1127.5 Z"/></g>
<g><path style="opacity:1" fill="#bd693f" d="M 1350.5,1159.5 C 1353.5,1161.83 1356.17,1164.5 1358.5,1167.5C 1354.83,1165.83 1352.17,1163.17 1350.5,1159.5 Z"/></g>
<g><path style="opacity:1" fill="#ca6138" d="M 1756.5,1174.5 C 1733.5,1170.52 1710.5,1170.52 1687.5,1174.5C 1689.96,1173.26 1692.63,1172.26 1695.5,1171.5C 1712.16,1170.33 1728.82,1170.17 1745.5,1171C 1748.88,1171.45 1752.21,1172.12 1755.5,1173C 1756.06,1173.38 1756.39,1173.88 1756.5,1174.5 Z"/></g>
<g><path style="opacity:1" fill="#fcfdea" d="M 1756.5,1174.5 C 1763.92,1176.81 1771.25,1179.65 1778.5,1183C 1796.98,1194.44 1809.31,1210.61 1815.5,1231.5C 1816.3,1236.15 1816.96,1240.81 1817.5,1245.5C 1816.97,1260.07 1815.97,1274.74 1814.5,1289.5C 1814.5,1290.83 1814.5,1292.17 1814.5,1293.5C 1811.4,1303.48 1808.06,1313.48 1804.5,1323.5C 1799.75,1335.67 1794.42,1347.67 1788.5,1359.5C 1781.43,1372.64 1773.6,1385.31 1765,1397.5C 1751,1416.17 1737,1434.83 1723,1453.5C 1713.45,1465.89 1701.95,1475.89 1688.5,1483.5C 1685.37,1484.98 1682.37,1486.65 1679.5,1488.5C 1661.36,1494.76 1642.69,1497.09 1623.5,1495.5C 1601.38,1492.25 1582.05,1483.25 1565.5,1468.5C 1541.97,1446.34 1528.3,1419 1524.5,1386.5C 1523.99,1377.84 1523.66,1369.18 1523.5,1360.5C 1525.39,1329.16 1533.39,1299.49 1547.5,1271.5C 1553.69,1261.13 1560.52,1251.13 1568,1241.5C 1599.98,1205.58 1639.81,1183.25 1687.5,1174.5C 1710.5,1170.52 1733.5,1170.52 1756.5,1174.5 Z"/></g>
<g><path style="opacity:1" fill="#ca5e38" d="M 1219.5,1168.5 C 1236.81,1175.09 1254.15,1175.09 1271.5,1168.5C 1266.99,1171.38 1261.99,1173.22 1256.5,1174C 1248.83,1174.4 1241.16,1174.9 1233.5,1175.5C 1230.09,1175.04 1226.75,1174.38 1223.5,1173.5C 1223.5,1172.5 1223.5,1171.5 1223.5,1170.5C 1221.52,1170.84 1220.18,1170.18 1219.5,1168.5 Z"/></g>
<g><path style="opacity:1" fill="#ce6135" d="M 1375.5,1186.5 C 1379.9,1190.96 1383.56,1195.96 1386.5,1201.5C 1385.03,1200.26 1383.36,1199.26 1381.5,1198.5C 1379.83,1200.09 1377.83,1200.75 1375.5,1200.5C 1375.35,1199.45 1375.52,1198.45 1376,1197.5C 1377.76,1196.88 1378.92,1195.71 1379.5,1194C 1377.37,1191.97 1376.04,1189.47 1375.5,1186.5 Z"/></g>
<g><path style="opacity:1" fill="#c7643a" d="M 1900.5,1199.5 C 1899.17,1204.5 1897.83,1209.5 1896.5,1214.5C 1895.83,1215.5 1895.17,1216.5 1894.5,1217.5C 1894.94,1211.96 1896.27,1206.63 1898.5,1201.5C 1896.91,1198.63 1897.57,1197.96 1900.5,1199.5 Z"/></g>
<g><path style="opacity:1" fill="#c9613e" d="M 1386.5,1201.5 C 1389.88,1205.55 1392.88,1209.89 1395.5,1214.5C 1394.18,1213.06 1392.51,1212.39 1390.5,1212.5C 1390.5,1211.17 1390.5,1209.83 1390.5,1208.5C 1389.5,1208.5 1388.5,1208.5 1387.5,1208.5C 1387.55,1206.1 1387.22,1203.76 1386.5,1201.5 Z"/></g>
<g><path style="opacity:1" fill="#c66138" d="M 358.5,1183.5 C 361.157,1193.83 363.49,1204.5 365.5,1215.5C 366.308,1215.81 366.975,1216.31 367.5,1217C 366.544,1220.39 366.211,1223.89 366.5,1227.5C 362.558,1213.19 359.891,1198.52 358.5,1183.5 Z"/></g>
<g><path style="opacity:1" fill="#fcfcf1" d="M 1403.5,1191.5 C 1406.17,1191.5 1408.83,1191.5 1411.5,1191.5C 1412.51,1194.05 1413.34,1196.72 1414,1199.5C 1414.33,1199.17 1414.67,1198.83 1415,1198.5C 1416.28,1199.57 1416.62,1200.91 1416,1202.5C 1418.95,1205 1421.78,1207.5 1424.5,1210C 1426.5,1210.5 1428.5,1211 1430.5,1211.5C 1433.79,1209.34 1437.12,1209.17 1440.5,1211C 1459.88,1211.18 1479.21,1211.68 1498.5,1212.5C 1504.06,1211.23 1509.4,1209.39 1514.5,1207C 1516.21,1205.62 1517.55,1203.96 1518.5,1202C 1520.5,1201.33 1522.5,1201.33 1524.5,1202C 1523.66,1203.01 1523.33,1204.18 1523.5,1205.5C 1522.83,1206.17 1522.17,1206.83 1521.5,1207.5C 1497.47,1217.46 1472.47,1220.96 1446.5,1218C 1427.95,1215.74 1413.62,1206.91 1403.5,1191.5 Z"/></g>
<g><path style="opacity:1" fill="#c5633a" d="M 1327.5,1217.5 C 1308.77,1214.65 1290.1,1214.99 1271.5,1218.5C 1272.51,1217.24 1274.01,1216.57 1276,1216.5C 1290.46,1214.37 1304.96,1214.04 1319.5,1215.5C 1322.59,1215.52 1325.26,1216.19 1327.5,1217.5 Z"/></g>
<g><path style="opacity:1" fill="#181111" d="M 1834.5,1330.5 C 1837.83,1326.83 1841.17,1323.17 1844.5,1319.5C 1858.14,1303.9 1868.47,1286.23 1875.5,1266.5C 1877.73,1263.16 1879.4,1259.5 1880.5,1255.5C 1885.76,1243.07 1890.42,1230.4 1894.5,1217.5C 1895.17,1216.5 1895.83,1215.5 1896.5,1214.5C 1899.63,1213.62 1900.13,1214.62 1898,1217.5C 1897.17,1228.18 1897.33,1238.85 1898.5,1249.5C 1899.94,1242.23 1900.94,1234.9 1901.5,1227.5C 1901.31,1224.65 1900.98,1222.15 1900.5,1220C 1901.22,1217.88 1902.39,1217.38 1904,1218.5C 1904.12,1228.12 1904.12,1237.79 1904,1247.5C 1902.47,1252.64 1898.97,1255.3 1893.5,1255.5C 1893.5,1258.17 1893.5,1260.83 1893.5,1263.5C 1892.18,1263.33 1891.01,1263.66 1890,1264.5C 1889.82,1267.55 1889.32,1270.55 1888.5,1273.5C 1887.67,1272.5 1886.83,1271.5 1886,1270.5C 1885.96,1264 1885.29,1257.66 1884,1251.5C 1883.13,1252.87 1882.63,1254.37 1882.5,1256C 1883.55,1261.81 1883.72,1267.64 1883,1273.5C 1880.92,1270.22 1879.42,1270.89 1878.5,1275.5C 1877.5,1275.5 1876.5,1275.5 1875.5,1275.5C 1875.6,1279.47 1876.26,1282.81 1877.5,1285.5C 1875.41,1285.68 1873.41,1285.35 1871.5,1284.5C 1860.99,1293.31 1862.32,1297.64 1875.5,1297.5C 1875.5,1299.5 1875.5,1301.5 1875.5,1303.5C 1867.83,1303.83 1863.83,1307.83 1863.5,1315.5C 1859.93,1315.04 1856.93,1316.04 1854.5,1318.5C 1854.17,1318.17 1853.83,1317.83 1853.5,1317.5C 1855.09,1315.83 1855.75,1313.83 1855.5,1311.5C 1852.09,1311.38 1850.76,1313.05 1851.5,1316.5C 1849.37,1316.15 1848.03,1316.98 1847.5,1319C 1848.71,1320.3 1849.37,1321.8 1849.5,1323.5C 1848.17,1323.5 1846.83,1323.5 1845.5,1323.5C 1845.5,1324.83 1845.5,1326.17 1845.5,1327.5C 1843.74,1327.64 1842.07,1327.31 1840.5,1326.5C 1839.27,1329.07 1837.27,1330.4 1834.5,1330.5 Z"/></g>
<g><path style="opacity:1" fill="#141212" d="M 1399.5,1061.5 C 1396.55,1074.73 1394.05,1088.07 1392,1101.5C 1388.43,1122.57 1388.76,1143.57 1393,1164.5C 1394.86,1174.2 1398.36,1183.2 1403.5,1191.5C 1413.62,1206.91 1427.95,1215.74 1446.5,1218C 1472.47,1220.96 1497.47,1217.46 1521.5,1207.5C 1524.8,1221.41 1529.47,1234.75 1535.5,1247.5C 1538.47,1256.1 1542.47,1264.1 1547.5,1271.5C 1533.39,1299.49 1525.39,1329.16 1523.5,1360.5C 1520.21,1358.55 1517.21,1356.22 1514.5,1353.5C 1478.19,1319.2 1445.19,1282.2 1415.5,1242.5C 1409.21,1232.88 1402.55,1223.55 1395.5,1214.5C 1392.88,1209.89 1389.88,1205.55 1386.5,1201.5C 1383.56,1195.96 1379.9,1190.96 1375.5,1186.5C 1370.92,1179.25 1365.25,1172.91 1358.5,1167.5C 1356.17,1164.5 1353.5,1161.83 1350.5,1159.5C 1339.27,1148.88 1327.27,1139.22 1314.5,1130.5C 1323.27,1115.3 1331.27,1099.63 1338.5,1083.5C 1340.41,1083.78 1342.08,1083.45 1343.5,1082.5C 1352.33,1081.55 1360.66,1079.21 1368.5,1075.5C 1379.21,1071.64 1389.55,1066.98 1399.5,1061.5 Z"/></g>
<g><path style="opacity:1" fill="#d05f33" d="M 1527.5,1204.5 C 1527.18,1206.05 1526.18,1206.71 1524.5,1206.5C 1524.54,1212 1525.37,1217.34 1527,1222.5C 1527.91,1224.44 1529.41,1225.44 1531.5,1225.5C 1531.76,1221.93 1533.76,1220.6 1537.5,1221.5C 1537.66,1223.53 1537.5,1225.53 1537,1227.5C 1533.98,1229.19 1532.82,1231.85 1533.5,1235.5C 1533.58,1239.63 1534.24,1243.63 1535.5,1247.5C 1529.47,1234.75 1524.8,1221.41 1521.5,1207.5C 1522.17,1206.83 1522.83,1206.17 1523.5,1205.5C 1524.83,1205.17 1526.17,1204.83 1527.5,1204.5 Z"/></g>
<g><path style="opacity:1" fill="#fdfdea" d="M 1327.5,1217.5 C 1352.18,1222.34 1374.18,1232.84 1393.5,1249C 1399.7,1255.37 1406.04,1261.54 1412.5,1267.5C 1423.84,1280.85 1433.17,1295.52 1440.5,1311.5C 1443.38,1318.16 1446.05,1324.82 1448.5,1331.5C 1461.5,1378.7 1481.33,1422.7 1508,1463.5C 1513.61,1471.95 1520.11,1479.61 1527.5,1486.5C 1536.22,1497.22 1544.55,1508.22 1552.5,1519.5C 1556.18,1524.87 1559.85,1530.2 1563.5,1535.5C 1576.63,1557.1 1587.63,1579.76 1596.5,1603.5C 1603.38,1627.05 1605.38,1651.05 1602.5,1675.5C 1591.21,1729.44 1560.88,1768.44 1511.5,1792.5C 1478.18,1805.87 1444.18,1807.87 1409.5,1798.5C 1380.37,1788.44 1353.7,1773.94 1329.5,1755C 1316.5,1740.67 1302.83,1727 1288.5,1714C 1247.96,1682.58 1201.96,1664.75 1150.5,1660.5C 1145.65,1659.67 1140.65,1659.01 1135.5,1658.5C 1095.67,1658.22 1055.67,1658.05 1015.5,1658C 1010.33,1656.73 1004.99,1655.9 999.5,1655.5C 998.274,1655.52 997.274,1655.85 996.5,1656.5C 995.5,1656.5 994.5,1656.5 993.5,1656.5C 960.292,1652.6 928.959,1642.76 899.5,1627C 861.941,1605.38 839.608,1573.21 832.5,1530.5C 831.115,1518.79 831.448,1507.12 833.5,1495.5C 849.016,1441.47 880.349,1399.14 927.5,1368.5C 938.175,1362.5 948.841,1356.5 959.5,1350.5C 975.129,1343.01 991.129,1336.68 1007.5,1331.5C 1019.51,1329.83 1031.18,1327.17 1042.5,1323.5C 1083.21,1314.21 1120.88,1298.05 1155.5,1275C 1189.2,1246.32 1227.87,1227.48 1271.5,1218.5C 1290.1,1214.99 1308.77,1214.65 1327.5,1217.5 Z"/></g>
<g><path style="opacity:1" fill="#fff0ca" d="M 1817.5,1245.5 C 1818.64,1254.76 1818.8,1264.09 1818,1273.5C 1817.51,1279.11 1816.35,1284.44 1814.5,1289.5C 1815.97,1274.74 1816.97,1260.07 1817.5,1245.5 Z"/></g>
<g><path style="opacity:1" fill="#c96432" d="M 1815.5,1231.5 C 1816.16,1232.4 1816.82,1233.4 1817.5,1234.5C 1820,1249.35 1821.33,1264.35 1821.5,1279.5C 1820.5,1279.5 1819.5,1279.5 1818.5,1279.5C 1818.7,1284.71 1817.37,1289.38 1814.5,1293.5C 1814.5,1292.17 1814.5,1290.83 1814.5,1289.5C 1816.35,1284.44 1817.51,1279.11 1818,1273.5C 1818.8,1264.09 1818.64,1254.76 1817.5,1245.5C 1816.96,1240.81 1816.3,1236.15 1815.5,1231.5 Z"/></g>
<g><path style="opacity:1" fill="#bd6244" d="M 1880.5,1255.5 C 1879.4,1259.5 1877.73,1263.16 1875.5,1266.5C 1875.51,1261.98 1877.17,1258.31 1880.5,1255.5 Z"/></g>
<g><path style="opacity:1" fill="#c6633a" d="M 893.5,1278.5 C 915.565,1286.1 938.232,1288.76 961.5,1286.5C 961.389,1287.12 961.056,1287.62 960.5,1288C 939.414,1289.8 918.747,1287.8 898.5,1282C 896.404,1281.26 894.737,1280.1 893.5,1278.5 Z"/></g>
<g><path style="opacity:1" fill="#db5b28" d="M 1415.5,1242.5 C 1445.19,1282.2 1478.19,1319.2 1514.5,1353.5C 1516.74,1356.95 1519.24,1360.29 1522,1363.5C 1521.86,1371.57 1522.69,1379.23 1524.5,1386.5C 1528.3,1419 1541.97,1446.34 1565.5,1468.5C 1562.03,1469.11 1560.03,1467.78 1559.5,1464.5C 1557.28,1464.18 1555.44,1464.84 1554,1466.5C 1553.51,1464.87 1553.34,1463.2 1553.5,1461.5C 1552.18,1461.67 1551.01,1461.34 1550,1460.5C 1548.62,1462.75 1547.12,1464.92 1545.5,1467C 1547.11,1468.05 1547.77,1469.55 1547.5,1471.5C 1544.83,1471.5 1542.17,1471.5 1539.5,1471.5C 1539.5,1469.5 1539.5,1467.5 1539.5,1465.5C 1537.11,1465.14 1534.78,1464.48 1532.5,1463.5C 1530.96,1463.79 1529.62,1464.46 1528.5,1465.5C 1527.24,1470.34 1527.24,1475.17 1528.5,1480C 1528.18,1481.65 1527.18,1482.65 1525.5,1483C 1526.82,1483.82 1527.49,1484.98 1527.5,1486.5C 1520.11,1479.61 1513.61,1471.95 1508,1463.5C 1481.33,1422.7 1461.5,1378.7 1448.5,1331.5C 1447.14,1325.11 1445.48,1318.77 1443.5,1312.5C 1442.58,1311.87 1441.58,1311.54 1440.5,1311.5C 1433.17,1295.52 1423.84,1280.85 1412.5,1267.5C 1414.13,1268.21 1415.47,1269.37 1416.5,1271C 1418.17,1271.67 1419.83,1271.67 1421.5,1271C 1427.04,1268.29 1428.71,1263.96 1426.5,1258C 1423.69,1256.73 1420.85,1256.23 1418,1256.5C 1419.12,1254.06 1419.46,1251.39 1419,1248.5C 1416.81,1247.11 1415.65,1245.11 1415.5,1242.5 Z"/></g>
<g><path style="opacity:1" fill="#ce5e2f" d="M 887.5,1280.5 C 885.949,1283.56 883.782,1286.23 881,1288.5C 880.517,1289.45 880.351,1290.45 880.5,1291.5C 883.073,1291.15 885.406,1291.65 887.5,1293C 884.411,1293.15 881.578,1293.98 879,1295.5C 877.838,1294.81 876.672,1294.65 875.5,1295C 874.072,1296.92 873.072,1299.08 872.5,1301.5C 870.983,1300.09 869.649,1300.26 868.5,1302C 870.059,1302.98 871.726,1303.81 873.5,1304.5C 870.553,1305.32 867.553,1305.82 864.5,1306C 863.529,1307.48 862.196,1308.31 860.5,1308.5C 869.528,1299.14 878.528,1289.81 887.5,1280.5 Z"/></g>
<g><path style="opacity:1" fill="#cc6035" d="M 1814.5,1293.5 C 1813.55,1299.56 1812.22,1305.56 1810.5,1311.5C 1810.84,1313.51 1811.17,1315.51 1811.5,1317.5C 1810.45,1317.35 1809.45,1317.52 1808.5,1318C 1807.39,1320.13 1806.05,1321.96 1804.5,1323.5C 1808.06,1313.48 1811.4,1303.48 1814.5,1293.5 Z"/></g>
<g><path style="opacity:1" fill="#c16336" d="M 1440.5,1311.5 C 1441.58,1311.54 1442.58,1311.87 1443.5,1312.5C 1445.48,1318.77 1447.14,1325.11 1448.5,1331.5C 1446.05,1324.82 1443.38,1318.16 1440.5,1311.5 Z"/></g>
<g><path style="opacity:1" fill="#bf664c" d="M 414.5,1323.5 C 418.669,1323.43 421.002,1325.43 421.5,1329.5C 418.94,1327.73 416.607,1325.73 414.5,1323.5 Z"/></g>
<g><path style="opacity:1" fill="#ca6032" d="M 1042.5,1323.5 C 1031.18,1327.17 1019.51,1329.83 1007.5,1331.5C 1008.4,1330.84 1009.4,1330.18 1010.5,1329.5C 1018.9,1328.03 1027.23,1326.37 1035.5,1324.5C 1035.5,1323.5 1035.5,1322.5 1035.5,1321.5C 1037.93,1321.88 1040.26,1322.55 1042.5,1323.5 Z"/></g>
<g><path style="opacity:1" fill="#2c0f09" d="M 627.5,1327.5 C 626.791,1328.4 625.791,1328.74 624.5,1328.5C 624.67,1329.82 624.337,1330.99 623.5,1332C 614.348,1335.74 605.348,1339.74 596.5,1344C 594.866,1344.49 593.199,1344.66 591.5,1344.5C 603.687,1339.22 615.687,1333.55 627.5,1327.5 Z"/></g>
<g><path style="opacity:1" fill="#d15f30" d="M 1844.5,1319.5 C 1841.17,1323.17 1837.83,1326.83 1834.5,1330.5C 1820.49,1342.18 1805.15,1351.84 1788.5,1359.5C 1794.42,1347.67 1799.75,1335.67 1804.5,1323.5C 1803.47,1328.57 1802.13,1333.57 1800.5,1338.5C 1802,1340.85 1803.33,1343.35 1804.5,1346C 1806.3,1346.44 1807.63,1345.77 1808.5,1344C 1807.59,1342.21 1807.42,1340.38 1808,1338.5C 1809.99,1337.78 1811.82,1336.78 1813.5,1335.5C 1814.07,1337.51 1815.07,1339.18 1816.5,1340.5C 1818.49,1339.71 1818.82,1338.54 1817.5,1337C 1819.49,1336.82 1821.49,1336.99 1823.5,1337.5C 1823.34,1336.13 1823.51,1334.79 1824,1333.5C 1825.81,1334.61 1826.65,1333.94 1826.5,1331.5C 1828.7,1331.43 1830.7,1330.77 1832.5,1329.5C 1832.29,1328.91 1831.96,1328.41 1831.5,1328C 1832.79,1327.51 1834.13,1327.34 1835.5,1327.5C 1835.5,1326.17 1835.5,1324.83 1835.5,1323.5C 1836.83,1323.5 1838.17,1323.5 1839.5,1323.5C 1839.18,1320.1 1839.51,1316.77 1840.5,1313.5C 1841.47,1315.4 1841.8,1317.4 1841.5,1319.5C 1842.5,1319.5 1843.5,1319.5 1844.5,1319.5 Z"/></g>
<g><path style="opacity:1" fill="#c56439" d="M 579.5,1347.5 C 567.751,1351.77 555.751,1355.1 543.5,1357.5C 538.178,1357.98 532.845,1358.31 527.5,1358.5C 532.29,1357.28 537.29,1356.61 542.5,1356.5C 542.439,1354.41 541.439,1352.91 539.5,1352C 540.167,1351.83 540.833,1351.67 541.5,1351.5C 544.119,1352.98 546.952,1353.98 550,1354.5C 559.824,1351.75 569.658,1349.42 579.5,1347.5 Z"/></g>
<g><path style="opacity:1" fill="#cf5e34" d="M 451.5,1347.5 C 455.418,1347.73 459.084,1348.73 462.5,1350.5C 471.823,1349.22 481.156,1349.22 490.5,1350.5C 483.189,1351.33 475.856,1351.83 468.5,1352C 473.111,1352.72 477.611,1353.89 482,1355.5C 483.092,1354.7 484.259,1354.04 485.5,1353.5C 487.767,1353.56 488.433,1354.39 487.5,1356C 490.675,1355.95 493.342,1356.78 495.5,1358.5C 492.833,1358.5 490.167,1358.5 487.5,1358.5C 475.044,1356.38 463.044,1352.72 451.5,1347.5 Z"/></g>
<g><path style="opacity:1" fill="#2c0a01" d="M 543.5,1357.5 C 543.389,1358.12 543.056,1358.62 542.5,1359C 532.184,1359.85 521.851,1360.35 511.5,1360.5C 503.278,1360.67 495.278,1360 487.5,1358.5C 490.167,1358.5 492.833,1358.5 495.5,1358.5C 506.167,1359.83 516.833,1359.83 527.5,1358.5C 532.845,1358.31 538.178,1357.98 543.5,1357.5 Z"/></g>
<g><path style="opacity:1" fill="#cb6132" d="M 959.5,1350.5 C 948.841,1356.5 938.175,1362.5 927.5,1368.5C 929.383,1364.88 932.383,1362.72 936.5,1362C 935.328,1361.58 934.328,1360.91 933.5,1360C 935.235,1359.35 936.902,1359.52 938.5,1360.5C 939.524,1359.15 940.857,1358.48 942.5,1358.5C 942.281,1357.32 942.614,1356.32 943.5,1355.5C 944.736,1356.25 946.07,1356.58 947.5,1356.5C 947.5,1354.83 947.5,1353.17 947.5,1351.5C 949.792,1351.24 951.959,1351.58 954,1352.5C 955.444,1350.84 957.278,1350.18 959.5,1350.5 Z"/></g>
<g><path style="opacity:1" fill="#c26336" d="M 1514.5,1353.5 C 1517.21,1356.22 1520.21,1358.55 1523.5,1360.5C 1523.66,1369.18 1523.99,1377.84 1524.5,1386.5C 1522.69,1379.23 1521.86,1371.57 1522,1363.5C 1519.24,1360.29 1516.74,1356.95 1514.5,1353.5 Z"/></g>
<g><path style="opacity:1" fill="#c46437" d="M 745.5,1395.5 C 740.891,1400.64 735.224,1403.97 728.5,1405.5C 733.994,1401.92 739.661,1398.58 745.5,1395.5 Z"/></g>
<g><path style="opacity:1" fill="#d45c2f" d="M 671.5,1442.5 C 669.984,1444.19 668.65,1446.02 667.5,1448C 666.792,1450.35 666.792,1452.85 667.5,1455.5C 670.167,1455.5 672.833,1455.5 675.5,1455.5C 675.5,1456.83 675.5,1458.17 675.5,1459.5C 673.334,1459.58 671.334,1460.25 669.5,1461.5C 667.36,1460.53 665.693,1459.03 664.5,1457C 661.518,1456.5 658.518,1456.34 655.5,1456.5C 655.66,1458.2 655.494,1459.87 655,1461.5C 653.612,1460.45 652.112,1460.28 650.5,1461C 647.276,1465.96 643.943,1470.79 640.5,1475.5C 639.167,1475.5 637.833,1475.5 636.5,1475.5C 636.178,1477.72 636.845,1479.56 638.5,1481C 636.941,1483.36 634.775,1484.86 632,1485.5C 631.798,1483.74 631.298,1482.08 630.5,1480.5C 627.147,1483.52 623.813,1486.52 620.5,1489.5C 620.369,1488.76 620.536,1488.09 621,1487.5C 636.831,1471.16 653.665,1456.16 671.5,1442.5 Z"/></g>
<g><path style="opacity:1" fill="#c96235" d="M 1679.5,1488.5 C 1676.37,1490.06 1673.21,1491.72 1670,1493.5C 1654.57,1496.64 1639.07,1497.3 1623.5,1495.5C 1642.69,1497.09 1661.36,1494.76 1679.5,1488.5 Z"/></g>
<g><path style="opacity:1" fill="#bd6136" d="M 620.5,1489.5 C 616.561,1495.11 611.894,1500.11 606.5,1504.5C 610.439,1498.89 615.106,1493.89 620.5,1489.5 Z"/></g>
<g><path style="opacity:1" fill="#c46536" d="M 833.5,1495.5 C 831.448,1507.12 831.115,1518.79 832.5,1530.5C 831.117,1524.89 830.45,1519.06 830.5,1513C 830.119,1506.8 831.119,1500.97 833.5,1495.5 Z"/></g>
<g><path style="opacity:1" fill="#c3623f" d="M 1552.5,1519.5 C 1553.83,1519.5 1555.17,1519.5 1556.5,1519.5C 1556.34,1520.87 1556.51,1522.21 1557,1523.5C 1559.97,1527.12 1562.14,1531.12 1563.5,1535.5C 1559.85,1530.2 1556.18,1524.87 1552.5,1519.5 Z"/></g>
<g><path style="opacity:1" fill="#d35d32" d="M 586.5,1527.5 C 586.315,1529.2 585.481,1530.53 584,1531.5C 583.818,1534.23 583.318,1536.89 582.5,1539.5C 581.833,1538.5 581.167,1537.5 580.5,1536.5C 580.302,1539.79 578.635,1541.45 575.5,1541.5C 575.666,1548.51 575.5,1555.51 575,1562.5C 574.286,1557.64 572.953,1552.98 571,1548.5C 570.34,1550.32 569.173,1551.66 567.5,1552.5C 572.689,1543.31 579.022,1534.98 586.5,1527.5 Z"/></g>
<g><path style="opacity:1" fill="#211012" d="M 1776.5,1591.5 C 1779.24,1593.3 1780.74,1595.97 1781,1599.5C 1781.19,1597.42 1781.69,1595.42 1782.5,1593.5C 1783.69,1596.32 1783.69,1599.15 1782.5,1602C 1783.88,1603.6 1784.55,1605.43 1784.5,1607.5C 1786.17,1607.5 1787.83,1607.5 1789.5,1607.5C 1789.76,1611.24 1789.43,1614.91 1788.5,1618.5C 1790.1,1622.46 1791.6,1626.46 1793,1630.5C 1793.41,1630.04 1793.91,1629.71 1794.5,1629.5C 1795.75,1632.87 1795.75,1636.21 1794.5,1639.5C 1793.17,1636.17 1791.83,1632.83 1790.5,1629.5C 1786.82,1616.46 1782.15,1603.79 1776.5,1591.5 Z"/></g>
<g><path style="opacity:1" fill="#d25e2e" d="M 545.5,1591.5 C 543.691,1596.67 542.358,1602.01 541.5,1607.5C 540.5,1607.5 539.5,1607.5 538.5,1607.5C 537.774,1612.21 536.774,1616.88 535.5,1621.5C 535.709,1622.09 536.043,1622.59 536.5,1623C 535.712,1626.08 535.212,1629.24 535,1632.5C 533.401,1635.61 530.901,1637.28 527.5,1637.5C 528.329,1640.47 528.495,1643.47 528,1646.5C 527.667,1646.83 527.333,1647.17 527,1647.5C 526.581,1646.33 525.915,1645.33 525,1644.5C 524.022,1648.56 522.522,1652.22 520.5,1655.5C 526.496,1633.17 534.829,1611.83 545.5,1591.5 Z"/></g>
<g><path style="opacity:1" fill="#c4643a" d="M 1602.5,1675.5 C 1605.38,1651.05 1603.38,1627.05 1596.5,1603.5C 1597.12,1603.39 1597.62,1603.06 1598,1602.5C 1600.9,1611.97 1602.9,1621.64 1604,1631.5C 1604.67,1644.83 1604.67,1658.17 1604,1671.5C 1603.79,1673.06 1603.29,1674.39 1602.5,1675.5 Z"/></g>
<g><path style="opacity:1" fill="#c0643f" d="M 1790.5,1629.5 C 1791.83,1632.83 1793.17,1636.17 1794.5,1639.5C 1795.17,1643.83 1795.83,1648.17 1796.5,1652.5C 1794.98,1647.16 1793.15,1641.82 1791,1636.5C 1790.5,1634.19 1790.34,1631.86 1790.5,1629.5 Z"/></g>
<g><path style="opacity:1" fill="#fff2d4" d="M 1135.5,1658.5 C 1120.16,1658.33 1104.83,1658.5 1089.5,1659C 1084.65,1659.17 1079.98,1659.67 1075.5,1660.5C 1075.17,1660.5 1074.83,1660.5 1074.5,1660.5C 1059.5,1660.67 1044.5,1660.5 1029.5,1660C 1018.27,1659.61 1007.27,1658.44 996.5,1656.5C 997.274,1655.85 998.274,1655.52 999.5,1655.5C 1004.99,1655.9 1010.33,1656.73 1015.5,1658C 1055.67,1658.05 1095.67,1658.22 1135.5,1658.5 Z"/></g>
<g><path style="opacity:1" fill="#ca5f33" d="M 1135.5,1658.5 C 1140.65,1659.01 1145.65,1659.67 1150.5,1660.5C 1125.5,1660.5 1100.5,1660.5 1075.5,1660.5C 1079.98,1659.67 1084.65,1659.17 1089.5,1659C 1104.83,1658.5 1120.16,1658.33 1135.5,1658.5 Z"/></g>
<g><path style="opacity:1" fill="#c96331" d="M 993.5,1656.5 C 994.5,1656.5 995.5,1656.5 996.5,1656.5C 1007.27,1658.44 1018.27,1659.61 1029.5,1660C 1044.5,1660.5 1059.5,1660.67 1074.5,1660.5C 1061.66,1661.26 1048.66,1661.93 1035.5,1662.5C 1025.25,1660.61 1014.91,1660.11 1004.5,1661C 1006.27,1661.54 1006.6,1662.37 1005.5,1663.5C 1003.67,1662.2 1001.67,1661.2 999.5,1660.5C 1000.73,1659.72 1002.06,1659.22 1003.5,1659C 999.821,1658.97 996.488,1658.14 993.5,1656.5 Z"/></g>
<g><path style="opacity:1" fill="#310805" d="M 1800.5,1671.5 C 1802.04,1680.62 1802.7,1689.95 1802.5,1699.5C 1802.5,1706.34 1802.17,1713.01 1801.5,1719.5C 1801.83,1706.32 1801.5,1693.32 1800.5,1680.5C 1800.5,1677.5 1800.5,1674.5 1800.5,1671.5 Z"/></g>
<g><path style="opacity:1" fill="#151113" d="M 1772.5,1821.5 C 1779.88,1806.71 1785.88,1791.37 1790.5,1775.5C 1793.42,1767.84 1795.42,1759.84 1796.5,1751.5C 1797.94,1745.19 1799.27,1738.85 1800.5,1732.5C 1800.06,1741.5 1799.56,1750.5 1799,1759.5C 1797.96,1762.11 1796.46,1764.45 1794.5,1766.5C 1795.56,1769.1 1795.73,1771.77 1795,1774.5C 1794.59,1774.04 1794.09,1773.71 1793.5,1773.5C 1793,1776.59 1792,1779.43 1790.5,1782C 1794.11,1780.62 1797.61,1779.45 1801,1778.5C 1804.12,1765.92 1804.28,1753.25 1801.5,1740.5C 1803.21,1730.57 1805.55,1720.91 1808.5,1711.5C 1810.83,1711.5 1813.17,1711.5 1815.5,1711.5C 1815.5,1710.17 1815.5,1708.83 1815.5,1707.5C 1816.83,1707.5 1818.17,1707.5 1819.5,1707.5C 1819.5,1706.17 1819.5,1704.83 1819.5,1703.5C 1820.83,1703.5 1822.17,1703.5 1823.5,1703.5C 1823.5,1704.83 1823.5,1706.17 1823.5,1707.5C 1824.83,1707.5 1826.17,1707.5 1827.5,1707.5C 1827.5,1708.83 1827.5,1710.17 1827.5,1711.5C 1826.17,1711.5 1824.83,1711.5 1823.5,1711.5C 1823.5,1713.5 1823.5,1715.5 1823.5,1717.5C 1820.21,1717.07 1817.21,1717.74 1814.5,1719.5C 1814.17,1720.83 1813.83,1722.17 1813.5,1723.5C 1814.19,1726.2 1814.86,1728.87 1815.5,1731.5C 1826.09,1731.86 1826.09,1732.86 1815.5,1734.5C 1814,1735.84 1813.33,1737.51 1813.5,1739.5C 1809.76,1738.6 1807.76,1739.93 1807.5,1743.5C 1809.5,1743.5 1811.5,1743.5 1813.5,1743.5C 1813.5,1744.83 1813.5,1746.17 1813.5,1747.5C 1810.92,1747.92 1808.75,1747.25 1807,1745.5C 1806.3,1755.52 1806.47,1765.52 1807.5,1775.5C 1810.17,1775.5 1812.83,1775.5 1815.5,1775.5C 1815.5,1774.17 1815.5,1772.83 1815.5,1771.5C 1816.83,1771.5 1818.17,1771.5 1819.5,1771.5C 1819.5,1770.17 1819.5,1768.83 1819.5,1767.5C 1820.83,1767.5 1822.17,1767.5 1823.5,1767.5C 1823.5,1768.83 1823.5,1770.17 1823.5,1771.5C 1824.83,1771.5 1826.17,1771.5 1827.5,1771.5C 1827.5,1772.83 1827.5,1774.17 1827.5,1775.5C 1826.17,1775.5 1824.83,1775.5 1823.5,1775.5C 1823.5,1777.5 1823.5,1779.5 1823.5,1781.5C 1820.21,1781.07 1817.21,1781.74 1814.5,1783.5C 1813.18,1788.13 1812.18,1792.79 1811.5,1797.5C 1809.33,1797.58 1807.33,1798.25 1805.5,1799.5C 1801.74,1797.18 1799.74,1798.51 1799.5,1803.5C 1800.19,1806.2 1800.86,1808.87 1801.5,1811.5C 1803.6,1811.2 1805.6,1811.53 1807.5,1812.5C 1799.58,1812.08 1796.25,1815.75 1797.5,1823.5C 1795.5,1823.5 1793.5,1823.5 1791.5,1823.5C 1791.5,1824.83 1791.5,1826.17 1791.5,1827.5C 1788.83,1827.5 1786.17,1827.5 1783.5,1827.5C 1783.5,1828.83 1783.5,1830.17 1783.5,1831.5C 1782.17,1831.5 1780.83,1831.5 1779.5,1831.5C 1779.5,1834.17 1779.5,1836.83 1779.5,1839.5C 1778.17,1839.5 1776.83,1839.5 1775.5,1839.5C 1775.2,1835.23 1775.54,1831.07 1776.5,1827C 1775.03,1825.23 1773.7,1823.39 1772.5,1821.5 Z"/></g>
<g><path style="opacity:1" fill="#c3623d" d="M 1800.5,1680.5 C 1801.5,1693.32 1801.83,1706.32 1801.5,1719.5C 1800.71,1723.79 1800.37,1728.12 1800.5,1732.5C 1799.27,1738.85 1797.94,1745.19 1796.5,1751.5C 1797.65,1741.63 1798.65,1731.63 1799.5,1721.5C 1800.5,1707.85 1800.83,1694.18 1800.5,1680.5 Z"/></g>
<g><path style="opacity:1" fill="#2c0904" d="M 507.5,1722.5 C 507.334,1732.84 507.5,1743.17 508,1753.5C 508.446,1763.8 509.946,1773.8 512.5,1783.5C 512.5,1784.83 512.5,1786.17 512.5,1787.5C 510.92,1785.28 509.92,1782.62 509.5,1779.5C 506.499,1760.43 505.833,1741.43 507.5,1722.5 Z"/></g>
<g><path style="opacity:1" fill="#c4623e" d="M 514.5,1679.5 C 511.682,1698.71 509.682,1718.05 508.5,1737.5C 509.393,1752.88 510.726,1768.21 512.5,1783.5C 509.946,1773.8 508.446,1763.8 508,1753.5C 507.5,1743.17 507.334,1732.84 507.5,1722.5C 508.808,1708.01 511.141,1693.68 514.5,1679.5 Z"/></g>
<g><path style="opacity:1" fill="#c4623c" d="M 1796.5,1751.5 C 1795.42,1759.84 1793.42,1767.84 1790.5,1775.5C 1791.3,1766.98 1793.3,1758.98 1796.5,1751.5 Z"/></g>
<g><path style="opacity:1" fill="#c6613b" d="M 515.5,1795.5 C 520.373,1805.54 524.873,1815.2 529,1824.5C 529.893,1823.29 530.726,1823.29 531.5,1824.5C 531.069,1825.29 530.735,1826.13 530.5,1827C 531.856,1828.57 532.523,1830.4 532.5,1832.5C 524.965,1821.09 519.298,1808.76 515.5,1795.5 Z"/></g>
<g><path style="opacity:1" fill="#d15f33" d="M 1511.5,1792.5 C 1509.51,1794.94 1506.85,1796.44 1503.5,1797C 1505.58,1797.19 1507.58,1797.69 1509.5,1798.5C 1509.29,1799.09 1508.96,1799.59 1508.5,1800C 1487.13,1803.25 1464.8,1805.75 1441.5,1807.5C 1439.83,1807.33 1438.17,1807.17 1436.5,1807C 1436.96,1806.59 1437.29,1806.09 1437.5,1805.5C 1436.5,1805.17 1435.5,1804.83 1434.5,1804.5C 1425.67,1803.74 1417.34,1801.74 1409.5,1798.5C 1444.18,1807.87 1478.18,1805.87 1511.5,1792.5 Z"/></g>
<g><path style="opacity:1" fill="#cc5f34" d="M 532.5,1833.5 C 536.582,1838.62 540.915,1843.62 545.5,1848.5C 546.854,1846.82 548.521,1846.32 550.5,1847C 548.643,1848.18 547.643,1849.85 547.5,1852C 548.781,1855.4 550.448,1858.56 552.5,1861.5C 544.702,1853.03 538.035,1843.69 532.5,1833.5 Z"/></g>
<g><path style="opacity:1" fill="#2e0900" d="M 1155.5,1855.5 C 1155.5,1855.17 1155.5,1854.83 1155.5,1854.5C 1173.17,1854.5 1190.83,1854.5 1208.5,1854.5C 1212.83,1855.17 1217.17,1855.83 1221.5,1856.5C 1199.51,1855.68 1177.51,1855.35 1155.5,1855.5 Z"/></g>
<g><path style="opacity:1" fill="#c3603c" d="M 1155.5,1854.5 C 1155.5,1854.83 1155.5,1855.17 1155.5,1855.5C 1142.46,1855.96 1129.46,1856.96 1116.5,1858.5C 1120.92,1857.02 1125.59,1856.02 1130.5,1855.5C 1138.81,1854.5 1147.14,1854.17 1155.5,1854.5 Z"/></g>
<g><path style="opacity:1" fill="#cb5f38" d="M 1208.5,1854.5 C 1222.56,1854.61 1236.56,1855.61 1250.5,1857.5C 1252.61,1857.51 1254.44,1856.85 1256,1855.5C 1262.5,1859.92 1269.67,1862.42 1277.5,1863C 1280.19,1863.74 1282.53,1864.91 1284.5,1866.5C 1263.76,1861.54 1242.76,1858.21 1221.5,1856.5C 1217.17,1855.83 1212.83,1855.17 1208.5,1854.5 Z"/></g>
<g><path style="opacity:1" fill="#bb693c" d="M 1103.5,1860.5 C 1096.72,1862.32 1089.72,1863.66 1082.5,1864.5C 1084.72,1862.92 1087.38,1861.92 1090.5,1861.5C 1094.78,1860.51 1099.12,1860.17 1103.5,1860.5 Z"/></g>
<g><path style="opacity:1" fill="#171111" d="M 1155.5,1855.5 C 1177.51,1855.35 1199.51,1855.68 1221.5,1856.5C 1242.76,1858.21 1263.76,1861.54 1284.5,1866.5C 1296.29,1870.1 1307.96,1874.1 1319.5,1878.5C 1316.51,1879.15 1313.51,1879.82 1310.5,1880.5C 1306.21,1878.56 1301.55,1877.56 1296.5,1877.5C 1288.23,1875.77 1284.23,1879.1 1284.5,1887.5C 1283.53,1885.6 1283.2,1883.6 1283.5,1881.5C 1282.17,1881.5 1280.83,1881.5 1279.5,1881.5C 1279.5,1880.17 1279.5,1878.83 1279.5,1877.5C 1276.75,1877.81 1274.09,1877.48 1271.5,1876.5C 1272.69,1875.57 1274.02,1875.24 1275.5,1875.5C 1274.89,1872.03 1276.22,1870.03 1279.5,1869.5C 1279.5,1868.5 1279.5,1867.5 1279.5,1866.5C 1267.49,1866.96 1255.49,1867.63 1243.5,1868.5C 1234.96,1866.25 1226.29,1865.91 1217.5,1867.5C 1199.94,1865.64 1182.28,1864.97 1164.5,1865.5C 1164.5,1864.5 1164.5,1863.5 1164.5,1862.5C 1161.65,1862.36 1158.82,1862.03 1156,1861.5C 1147.89,1862.91 1139.72,1863.57 1131.5,1863.5C 1131.5,1862.5 1131.5,1861.5 1131.5,1860.5C 1126.8,1860.89 1122.13,1861.55 1117.5,1862.5C 1115.97,1862.47 1114.8,1861.8 1114,1860.5C 1113.5,1861.67 1112.67,1862.5 1111.5,1863C 1103.47,1863.34 1095.47,1864 1087.5,1865C 1089.26,1865.2 1090.92,1865.7 1092.5,1866.5C 1092.02,1867.48 1091.36,1868.31 1090.5,1869C 1091.94,1869.22 1093.27,1869.72 1094.5,1870.5C 1091.83,1871.74 1089.17,1871.74 1086.5,1870.5C 1084.49,1872.17 1082.16,1872.84 1079.5,1872.5C 1079.5,1871.5 1079.5,1870.5 1079.5,1869.5C 1077.52,1869.62 1075.85,1868.95 1074.5,1867.5C 1070.22,1868.82 1065.88,1869.99 1061.5,1871C 1060.83,1871.67 1060.17,1872.33 1059.5,1873C 1055.18,1873.87 1050.84,1874.7 1046.5,1875.5C 1041.94,1878.23 1036.94,1879.23 1031.5,1878.5C 1037.44,1876.3 1043.44,1874.3 1049.5,1872.5C 1060.65,1869.96 1071.65,1867.3 1082.5,1864.5C 1089.72,1863.66 1096.72,1862.32 1103.5,1860.5C 1108.05,1860.38 1112.38,1859.71 1116.5,1858.5C 1129.46,1856.96 1142.46,1855.96 1155.5,1855.5 Z"/></g>
<g><path style="opacity:1" fill="#c5633c" d="M 1049.5,1872.5 C 1043.44,1874.3 1037.44,1876.3 1031.5,1878.5C 1029.5,1878.83 1027.5,1879.17 1025.5,1879.5C 1026.43,1878.69 1027.43,1877.85 1028.5,1877C 1032.22,1876.2 1035.89,1875.2 1039.5,1874C 1038.4,1872.87 1038.73,1872.04 1040.5,1871.5C 1043.42,1872.41 1046.42,1872.74 1049.5,1872.5 Z"/></g>
<g><path style="opacity:1" fill="#220e0f" d="M 1319.5,1878.5 C 1327.82,1881.27 1335.82,1884.6 1343.5,1888.5C 1340.15,1888.67 1336.82,1888.5 1333.5,1888C 1332.66,1886.99 1332.33,1885.82 1332.5,1884.5C 1331.07,1884.42 1329.74,1884.75 1328.5,1885.5C 1325.76,1883.9 1322.76,1883.06 1319.5,1883C 1320.73,1881.51 1320.73,1880.01 1319.5,1878.5 Z"/></g>
<g><path style="opacity:1" fill="#c6633b" d="M 978.5,1896.5 C 967.881,1901.3 956.881,1905.3 945.5,1908.5C 946.429,1907.69 947.429,1906.85 948.5,1906C 947.167,1905.33 947.167,1904.67 948.5,1904C 950.811,1904.16 953.144,1904.16 955.5,1904C 962.893,1900.88 970.56,1898.38 978.5,1896.5 Z"/></g>
<g><path style="opacity:1" fill="#ce5e3c" d="M 594.5,1900.5 C 596.288,1900.21 597.955,1900.55 599.5,1901.5C 600.829,1904.07 602.662,1904.73 605,1903.5C 606.899,1906.64 609.733,1907.97 613.5,1907.5C 613.683,1909.99 614.683,1911.99 616.5,1913.5C 608.499,1910.17 601.166,1905.84 594.5,1900.5 Z"/></g>
<g><path style="opacity:1" fill="#1a1110" d="M 1376.5,1906.5 C 1406.56,1924.41 1438.9,1936.41 1473.5,1942.5C 1475.17,1943.17 1476.83,1943.83 1478.5,1944.5C 1468.88,1943.21 1459.21,1942.04 1449.5,1941C 1449.96,1940.59 1450.29,1940.09 1450.5,1939.5C 1449.37,1938.74 1448.21,1938.07 1447,1937.5C 1446,1938.5 1445,1939.5 1444,1940.5C 1439.93,1939.54 1435.77,1939.2 1431.5,1939.5C 1431.5,1940.83 1431.5,1942.17 1431.5,1943.5C 1430.17,1943.5 1428.83,1943.5 1427.5,1943.5C 1427.64,1939.45 1427.64,1935.62 1427.5,1932C 1426.58,1931.63 1425.75,1931.13 1425,1930.5C 1421.52,1931.82 1418.35,1933.49 1415.5,1935.5C 1415.5,1933.17 1415.5,1930.83 1415.5,1928.5C 1411.78,1929.23 1409.11,1927.89 1407.5,1924.5C 1405.89,1923.68 1404.23,1923.01 1402.5,1922.5C 1396.23,1923.46 1389.89,1923.79 1383.5,1923.5C 1383.5,1924.83 1383.5,1926.17 1383.5,1927.5C 1382.17,1927.5 1380.83,1927.5 1379.5,1927.5C 1379.5,1930.17 1379.5,1932.83 1379.5,1935.5C 1378.17,1935.5 1376.83,1935.5 1375.5,1935.5C 1375.5,1931.5 1375.5,1927.5 1375.5,1923.5C 1376.83,1923.5 1378.17,1923.5 1379.5,1923.5C 1380.19,1917.77 1378.85,1912.6 1375.5,1908C 1375.57,1907.24 1375.9,1906.74 1376.5,1906.5 Z"/></g>
<g><path style="opacity:1" fill="#c8623e" d="M 616.5,1913.5 C 619.135,1914.14 621.802,1914.81 624.5,1915.5C 626.375,1915.37 628.208,1915.04 630,1914.5C 630.5,1914.83 631,1915.17 631.5,1915.5C 628.956,1916.94 628.956,1918.44 631.5,1920C 635.344,1921.59 639.344,1922.59 643.5,1923C 644.71,1924.04 645.71,1925.21 646.5,1926.5C 635.741,1923.7 625.741,1919.37 616.5,1913.5 Z"/></g>
<g><path style="opacity:1" fill="#171113" d="M 929.5,1914.5 C 921.813,1917.98 913.98,1921.31 906,1924.5C 903.455,1923.2 900.955,1923.37 898.5,1925C 899.634,1926.02 899.301,1926.68 897.5,1927C 899.044,1927.29 900.377,1927.96 901.5,1929C 889.991,1928.92 878.657,1930.09 867.5,1932.5C 886.825,1933.33 906.158,1933.83 925.5,1934C 930.885,1933.69 932.885,1936.19 931.5,1941.5C 929.334,1941.58 927.334,1942.25 925.5,1943.5C 923.666,1942.25 921.666,1941.58 919.5,1941.5C 919.5,1940.17 919.5,1938.83 919.5,1937.5C 916.833,1937.5 914.167,1937.5 911.5,1937.5C 911.5,1938.83 911.5,1940.17 911.5,1941.5C 908.833,1941.5 906.167,1941.5 903.5,1941.5C 903.5,1940.17 903.5,1938.83 903.5,1937.5C 900.833,1937.5 898.167,1937.5 895.5,1937.5C 895.5,1938.83 895.5,1940.17 895.5,1941.5C 892.856,1941.16 890.523,1941.83 888.5,1943.5C 887.534,1941.6 887.201,1939.6 887.5,1937.5C 885.08,1937.71 882.747,1937.37 880.5,1936.5C 879.548,1938.05 879.215,1939.71 879.5,1941.5C 871.5,1940.17 868.167,1943.5 869.5,1951.5C 867.5,1951.5 865.5,1951.5 863.5,1951.5C 863.5,1952.83 863.5,1954.17 863.5,1955.5C 862.167,1955.5 860.833,1955.5 859.5,1955.5C 859.5,1954.17 859.5,1952.83 859.5,1951.5C 858.167,1951.5 856.833,1951.5 855.5,1951.5C 855.5,1950.17 855.5,1948.83 855.5,1947.5C 856.833,1947.5 858.167,1947.5 859.5,1947.5C 859.5,1946.17 859.5,1944.83 859.5,1943.5C 860.833,1943.5 862.167,1943.5 863.5,1943.5C 863.5,1941.17 863.5,1938.83 863.5,1936.5C 860.402,1936.59 860.068,1936.09 862.5,1935C 860.323,1933.8 857.989,1933.3 855.5,1933.5C 855.5,1933.17 855.5,1932.83 855.5,1932.5C 880.553,1928.07 905.22,1922.07 929.5,1914.5 Z"/></g>
<g><path style="opacity:1" fill="#b9663a" d="M 855.5,1932.5 C 855.5,1932.83 855.5,1933.17 855.5,1933.5C 843.533,1935.38 831.533,1937.05 819.5,1938.5C 831.26,1935.21 843.26,1933.21 855.5,1932.5 Z"/></g>
<g><path style="opacity:1" fill="#bc6543" d="M 688.5,1937.5 C 694.832,1937.94 701.165,1938.44 707.5,1939C 708.056,1939.38 708.389,1939.88 708.5,1940.5C 701.578,1940.34 694.911,1939.34 688.5,1937.5 Z"/></g>
<g><path style="opacity:1" fill="#d45e31" d="M 1575.5,1950.5 C 1562.01,1951.5 1548.34,1951.83 1534.5,1951.5C 1515.99,1950.57 1497.65,1948.24 1479.5,1944.5C 1479.17,1944.5 1478.83,1944.5 1478.5,1944.5C 1476.83,1943.83 1475.17,1943.17 1473.5,1942.5C 1487.15,1941.45 1500.81,1941.28 1514.5,1942C 1510.99,1942.12 1507.99,1943.29 1505.5,1945.5C 1509.05,1945.62 1512.72,1945.79 1516.5,1946C 1514.91,1946.86 1513.25,1947.53 1511.5,1948C 1532.77,1950.19 1554.1,1951.02 1575.5,1950.5 Z"/></g>
<g><path style="opacity:1" fill="#bb6240" d="M 818.5,1938.5 C 818.5,1938.83 818.5,1939.17 818.5,1939.5C 785.586,1943.29 752.586,1944.29 719.5,1942.5C 718.833,1942.5 718.5,1942.17 718.5,1941.5C 736.161,1942.35 753.827,1942.52 771.5,1942C 787.048,1940.72 802.715,1939.56 818.5,1938.5 Z"/></g>
<g><path style="opacity:1" fill="#21100a" d="M 818.5,1939.5 C 814.777,1940.79 814.777,1941.96 818.5,1943C 816.567,1943.78 815.067,1943.28 814,1941.5C 811.389,1942.07 808.889,1942.9 806.5,1944C 792,1944.17 777.5,1944.33 763,1944.5C 748.151,1944.5 733.651,1943.83 719.5,1942.5C 752.586,1944.29 785.586,1943.29 818.5,1939.5 Z"/></g>
<g><path style="opacity:1" fill="#c2663e" d="M 1618.5,1944.5 C 1612.44,1946.58 1606.11,1947.91 1599.5,1948.5C 1602.06,1946.91 1605.06,1945.91 1608.5,1945.5C 1611.77,1944.51 1615.1,1944.18 1618.5,1944.5 Z"/></g>
<g><path style="opacity:1" fill="#210f0a" d="M 1479.5,1944.5 C 1497.65,1948.24 1515.99,1950.57 1534.5,1951.5C 1534.5,1951.83 1534.5,1952.17 1534.5,1952.5C 1521.45,1952.9 1508.45,1952.4 1495.5,1951C 1495.17,1950.67 1494.83,1950.33 1494.5,1950C 1495.5,1949.67 1496.5,1949.33 1497.5,1949C 1491.01,1948.9 1485.01,1947.4 1479.5,1944.5 Z"/></g>
<g><path style="opacity:1" fill="#ba684b" d="M 1599.5,1948.5 C 1592.08,1950.35 1584.41,1951.51 1576.5,1952C 1562.5,1952.5 1548.5,1952.67 1534.5,1952.5C 1534.5,1952.17 1534.5,1951.83 1534.5,1951.5C 1548.34,1951.83 1562.01,1951.5 1575.5,1950.5C 1583.47,1949.62 1591.47,1948.96 1599.5,1948.5 Z"/></g>
</svg>
